<?xml version="1.0" encoding="utf-8"?><svg xmlns="http://www.w3.org/2000/svg" xmlns:xlink="http://www.w3.org/1999/xlink"><symbol viewBox="0 0 400.004 400.004" id="arrow" xmlns="http://www.w3.org/2000/svg"><path d="M382.688 182.686H59.116l77.209-77.214c6.764-6.76 6.764-17.726 0-24.485-6.764-6.764-17.73-6.764-24.484 0L5.073 187.757c-6.764 6.76-6.764 17.727 0 24.485l106.768 106.775a17.252 17.252 0 0 0 12.242 5.072c4.43 0 8.861-1.689 12.242-5.072 6.764-6.76 6.764-17.726 0-24.484l-77.209-77.218h323.572c9.562 0 17.316-7.753 17.316-17.315 0-9.562-7.753-17.314-17.316-17.314z"/></symbol><symbol viewBox="0 0 451.847 451.847" id="arrow-down" xmlns="http://www.w3.org/2000/svg"><path d="M225.923 354.706c-8.098 0-16.195-3.092-22.369-9.263L9.27 151.157c-12.359-12.359-12.359-32.397 0-44.751 12.354-12.354 32.388-12.354 44.748 0l171.905 171.915 171.906-171.909c12.359-12.354 32.391-12.354 44.744 0 12.365 12.354 12.365 32.392 0 44.751L248.292 345.449c-6.177 6.172-14.274 9.257-22.369 9.257z"/></symbol><symbol id="bch-logo" viewBox="0 0 55.2 70.3" xmlns="http://www.w3.org/2000/svg"><style>.acst0{fill:#363635}</style><title>Artboard 51</title><path class="acst0" d="M54.9 30.5c1.7-7.3-3.6-11.7-11.1-14.9L47 5.8l-5.9-2-3.1 9.6c-1.6-.5-3.2-1-4.7-1.6l3.2-9.5-6-2-3.2 9.8c-1.3-.4-2.6-.8-3.8-1.3l-8.2-2.7-2.1 6.3s4.4 1.4 4.3 1.4c2.4.8 2.7 2.5 2.6 3.7l-3.7 11.1c.2.1.4.1.6.2l-.7-.2L11 44.4c-.5 1.1-1.8 1.6-2.9 1.2.1.1-4.3-1.4-4.3-1.4L.2 50.9 8 53.4l4.3 1.4L9 64.7l6 2 3.2-9.8c1.6.5 3.2 1.1 4.7 1.6l-3.2 9.7 6 2 3.3-9.9c10.2 2.9 18 2.7 22-6.4 3.2-7.4.8-11.9-4.5-15.2 3.9-.5 7.1-2.9 8.4-8.2zM39.6 48.9c-2.4 7.4-14.8 2.3-18.9 1L25 36.7c4.1 1.4 17.1 4.5 14.6 12.2zm3.3-19.4c-2.2 6.7-12.5 2.4-15.9 1.3l4-11.9c3.4 1.1 14.3 3.6 11.9 10.6z"/></symbol><symbol viewBox="0 0 258 258" id="btc" xmlns="http://www.w3.org/2000/svg"><path d="M118.667 133.206l23.426 6.277c10.933 2.929 15.486 11.96 12.437 22.303-2.023 7.548-7.22 13.409-14.165 14.338-2.621.413-6.075-.234-8.938-1l-22.385-5.999 9.625-35.92zm41.846-39.562c3.987 3.858 4.935 9.692 3.331 15.678-2.51 9.37-9.72 14.413-19.09 11.903l-21.345-5.72 8.44-31.495 18.74 5.022c4.165 1.116 7.67 2.613 9.924 4.612zm-31.816 99.998l-4.882 18.22-12.234-3.278 4.882-18.22-12.754-3.418-4.882 18.221-12.234-3.278 4.883-18.221-24.468-6.556 4.463-16.658 7.549 2.023c3.904 1.046 7.604-1.31 8.58-4.955l19.738-73.662c1.047-3.905-1.31-7.604-4.953-8.58-5.033-1.35-7.55-2.023-7.55-2.023s1.489-5.553 4.464-16.66l24.468 6.557 4.882-18.22 12.234 3.277L136 66.431l12.754 3.418 4.882-18.22 12.234 3.278-4.952 18.48c6.177 1.935 10.913 4.04 15.301 7.448 9.817 7.094 14.645 19.268 11.019 32.803-3.07 11.454-10.786 19.429-21.742 21.793 12.349 8.052 15.198 21.37 11.78 34.124-4.654 16.328-18.795 25.372-32.925 26.05-5.624.166-10.449-.569-15.655-1.963zM5.362 95.87c-18.274 68.196 22.312 138.494 90.51 156.768 68.195 18.273 138.494-22.314 156.767-90.51 18.273-68.197-22.314-138.494-90.51-156.768C93.932-12.912 23.635 27.675 5.362 95.871z" fill-rule="evenodd"/></symbol><symbol id="btc-logo" viewBox="0 0 49.14 68.03" xmlns="http://www.w3.org/2000/svg"><defs><style>.aecls-1{fill:#363635}</style></defs><title>Artboard 51</title><path class="aecls-1" d="M45.49 21c-.7-7.42-7.1-9.93-15.19-10.66V.04h-6.25v10h-5V0h-6.27v10.3H.14L.1 17s4.63-.08 4.55 0c2.54 0 3.37 1.48 3.6 2.75v11.74a5.92 5.92 0 0 1 .67 0h-.69L8.18 48a2.21 2.21 0 0 1-2.36 2c.08.07-4.56 0-4.56 0L0 57.5h12.64v10.42h6.27v-10.3c1.72 0 3.38.06 5 .06v10.26h6.27v-10.4C40.72 57.06 48.1 54.42 49 44.53c.76-8-3-11.54-9-13 3.64-1.85 5.92-5.1 5.4-10.54zm-8.83 22.25c0 7.79-13.34 6.87-17.59 6.86v-13.8c4.25 0 17.58-1.17 17.56 6.94zm-2.87-19.47c0 7.08-11.13 6.22-14.67 6.22V17.48c3.57.01 14.69-1.09 14.67 6.3z"/></symbol><symbol viewBox="0 0 511.072 511.072" id="bubble" xmlns="http://www.w3.org/2000/svg"><path d="M74.39 480.536H38.177l25.607-25.607c13.807-13.807 22.429-31.765 24.747-51.246-36.029-23.644-62.375-54.751-76.478-90.425C-2.04 277.611-3.811 238.37 6.932 199.776c12.89-46.309 43.123-88.518 85.128-118.853 45.646-32.963 102.47-50.387 164.33-50.387 77.927 0 143.611 22.389 189.948 64.745 41.744 38.159 64.734 89.63 64.734 144.933 0 26.868-5.471 53.011-16.26 77.703-11.165 25.551-27.514 48.302-48.593 67.619-46.399 42.523-112.042 65-189.83 65-28.877 0-59.01-3.855-85.913-10.929-25.465 26.123-59.972 40.929-96.086 40.929zm182-420c-124.039 0-200.15 73.973-220.557 147.285-19.284 69.28 9.143 134.743 76.043 175.115l7.475 4.511-.23 8.727c-.456 17.274-4.574 33.912-11.945 48.952 17.949-6.073 34.236-17.083 46.99-32.151l6.342-7.493 9.405 2.813c26.393 7.894 57.104 12.241 86.477 12.241 154.372 0 224.682-93.473 224.682-180.322 0-46.776-19.524-90.384-54.976-122.79-40.713-37.216-99.397-56.888-169.706-56.888z"/></symbol><symbol viewBox="0 0 512 512" id="cab-nav-1" xmlns="http://www.w3.org/2000/svg"><path d="M336 16c-85.312 0-176 28.032-176 80v64c0 8.832 7.168 16 16 16s16-7.168 16-16v-16.672C225.952 164.736 282.016 176 336 176s110.048-11.264 144-32.672V160c0 15.648-39.36 40.608-113.344 46.784-8.768.704-15.328 8.48-14.592 17.28.672 8.352 7.68 14.656 15.904 14.656.48 0 .896-.032 1.376-.064 41.664-3.488 83.168-14.272 110.656-31.776V224c0 13.664-28.992 33.312-82.784 42.816-8.672 1.536-14.496 9.856-12.96 18.528 1.376 7.744 8.128 13.216 15.712 13.216.928 0 1.888-.064 2.816-.256 32.544-5.728 58.592-15.104 77.216-27.008V288c0 13.664-28.992 33.312-82.784 42.816-8.672 1.536-14.496 9.856-12.96 18.528 1.376 7.744 8.128 13.216 15.712 13.216.928 0 1.888-.064 2.816-.256 32.544-5.728 58.592-15.136 77.216-27.008V352c0 13.664-28.992 33.312-82.784 42.816-8.672 1.536-14.496 9.856-12.96 18.528 1.376 7.744 8.128 13.216 15.712 13.216.928 0 1.888-.064 2.816-.256 32.544-5.728 58.592-15.136 77.216-27.008V416c0 15.648-39.36 40.608-113.344 46.784-8.768.704-15.328 8.48-14.592 17.28.672 8.352 7.68 14.656 15.904 14.656.48 0 .896-.032 1.376-.064C440.352 488.704 512 462.112 512 416V96c0-51.968-90.688-80-176-80zm0 128c-87.904 0-144-28.448-144-48s56.096-48 144-48 144 28.448 144 48-56.096 48-144 48z"/><path d="M176 208C90.688 208 0 236.032 0 288v128c0 51.968 90.688 80 176 80s176-28.032 176-80V288c0-51.968-90.688-80-176-80zm144 208c0 19.552-56.096 48-144 48S32 435.552 32 416v-16.672C65.952 420.736 122.016 432 176 432s110.048-11.264 144-32.672V416zm0-64c0 19.552-56.096 48-144 48S32 371.552 32 352v-16.672C65.952 356.736 122.016 368 176 368s110.048-11.264 144-32.672V352zm-144-16c-87.904 0-144-28.448-144-48s56.096-48 144-48 144 28.448 144 48-56.096 48-144 48z"/></symbol><symbol viewBox="0 0 512 512" id="cab-nav-2" xmlns="http://www.w3.org/2000/svg"><path d="M509.152 193.752c-7.551-23.237-28.12-38.253-52.402-38.253H354.447c-6.784 0-12.435-3.905-14.387-9.913l-31.625-97.963c-7.52-23.143-28.101-38.096-52.434-38.096s-44.915 14.953-52.446 38.132l-31.602 97.891c-1.964 6.044-7.615 9.949-14.399 9.949H55.249c-24.282 0-44.852 15.015-52.402 38.253-7.58 23.328.27 47.663 19.996 61.995l82.767 60.134a15.1 15.1 0 0 1 5.499 16.926l-31.614 97.297c-7.52 23.143.342 47.338 20.028 61.64 9.843 7.152 21.124 10.727 32.405 10.727 11.282 0 22.564-3.575 32.406-10.727l82.767-60.134a15.1 15.1 0 0 1 17.797.001l82.766 60.133c19.686 14.302 45.126 14.304 64.811 0 19.686-14.301 27.548-38.497 20.028-61.64l-21.642-66.608c-3.412-10.503-14.695-16.251-25.196-12.839-10.504 3.413-16.252 14.693-12.839 25.197l21.641 66.608c3.154 9.707-3.412 15.41-5.5 16.928-2.088 1.516-9.541 6-17.797-.001l-82.766-60.132c-19.382-14.083-45.428-14.084-64.811-.001l-82.766 60.133c-8.258 6-15.711 1.517-17.798.001-2.088-1.518-8.653-7.221-5.5-16.928l31.614-97.297c7.405-22.786-.644-47.557-20.027-61.639l-82.767-60.134c-8.32-6.044-6.289-14.755-5.468-17.281.81-2.492 4.238-10.619 14.367-10.619h102.304c24.058 0 45.129-15.103 52.446-37.619l31.602-97.89c3.154-9.708 11.819-10.462 14.399-10.462s11.245.754 14.387 10.426l31.626 97.962c7.305 22.48 28.375 37.583 52.434 37.583h102.303c10.13 0 13.557 8.127 14.367 10.619.821 2.526 2.852 11.237-5.468 17.281l-56.435 41.003c-8.934 6.493-10.915 18.996-4.423 27.932 6.491 8.934 18.995 10.913 27.931 4.424l56.435-41.003c19.727-14.333 27.576-38.667 19.996-61.996z"/></symbol><symbol viewBox="0 0 512.001 512.001" id="cab-nav-3" xmlns="http://www.w3.org/2000/svg"><path d="M405 257.002c-33.084 0-60 26.916-60 60s26.916 60 60 60h85c.339 0 .67-.034 1.005-.051.332.016.659.05.995.05 11.046 0 20-8.954 20-20v-157c0-26.626-13.087-50.241-33.155-64.79l-68.04-111.62a19.992 19.992 0 0 0-12.437-9.044 19.993 19.993 0 0 0-15.181 2.457L333.01 48.12 310.382 9.826a20.003 20.003 0 0 0-27.606-6.917L90.109 120.001H60c-10.861 0-19.728-8.702-19.994-19.5.266-10.798 9.133-19.5 19.994-19.5h37c11.046 0 20-8.954 20-20s-8.954-20-20-20H60c-28.298 0-52.081 19.694-58.37 46.095A19.911 19.911 0 0 0 0 95.001v337c0 44.112 35.888 80 80 80h352c34.49 0 64.993-21.971 75.901-54.671 3.496-10.478-2.165-21.806-12.643-25.301-10.477-3.495-21.806 2.165-25.301 12.643A39.952 39.952 0 0 1 432 472.001H80c-22.056 0-40-17.944-40-40V156.57a59.713 59.713 0 0 0 20 3.431h372c22.056 0 40 17.944 40 40v57.001h-67zm67 79.999h-67c-11.028.001-20-8.971-20-20 0-11.028 8.972-20 20-20h67v40zM167.128 120.002l119.119-72.393 21.297 36.041c.409.985.879 1.956 1.459 2.892a20.28 20.28 0 0 0 1.42 1.982l18.6 31.478H167.128zm208.357-.001l-22.121-37.436L387.14 61.62l35.588 58.381h-47.243z"/></symbol><symbol viewBox="0 0 384 384" id="cab-nav-4" xmlns="http://www.w3.org/2000/svg"><path d="M343.594 101.04c-7.953 3.847-11.281 13.417-7.434 21.366C346.672 144.121 352 167.527 352 192c0 88.223-71.777 160-160 160S32 280.223 32 192 103.777 32 192 32c36.559 0 70.902 11.938 99.328 34.52 6.895 5.503 16.977 4.351 22.48-2.567 5.504-6.914 4.352-16.984-2.57-22.48C277.586 14.727 235.238 0 192 0 86.137 0 0 86.137 0 192s86.137 192 192 192 192-86.137 192-192c0-29.336-6.406-57.45-19.04-83.527-3.839-7.97-13.44-11.29-21.366-7.434zm0 0"/><path d="M192 64c-8.832 0-16 7.168-16 16v112c0 8.832 7.168 16 16 16h80c8.832 0 16-7.168 16-16s-7.168-16-16-16h-64V80c0-8.832-7.168-16-16-16zm0 0"/></symbol><symbol viewBox="0 0 512 512" id="cab-nav-5" xmlns="http://www.w3.org/2000/svg"><path d="M492 432c0 44.113-35.887 80-80 80H100c-44.113 0-80-35.887-80-80V210c0-11.047 8.953-20 20-20s20 8.953 20 20v222c0 22.055 17.945 40 40 40h312c22.055 0 40-17.945 40-40 0-11.047 8.953-20 20-20s20 8.953 20 20zm20-372v60c0 11.047-8.953 20-20 20v191c0 11.047-8.953 20-20 20s-20-8.953-20-20V140H20c-11.047 0-20-8.953-20-20V60C0 26.914 26.914 0 60 0h392c33.086 0 60 26.914 60 60zM40 100h432V60c0-11.027-8.973-20-20-20H60c-11.027 0-20 8.973-20 20zm260 80h-90c-11.047 0-20 8.953-20 20s8.953 20 20 20h90c11.047 0 20-8.953 20-20s-8.953-20-20-20zm112 231v-72c0-11.047-8.953-20-20-20s-20 8.953-20 20v72c0 11.047 8.953 20 20 20s20-8.953 20-20zm-121-72v72c0 11.047 8.953 20 20 20s20-8.953 20-20v-72c0-11.047-8.953-20-20-20s-20 8.953-20 20zm0 0"/></symbol><symbol viewBox="0 0 512 512" id="cab-nav-6" xmlns="http://www.w3.org/2000/svg"><path d="M176.792 0H59.208C26.561 0 0 26.561 0 59.208v117.584C0 209.439 26.561 236 59.208 236h117.584C209.439 236 236 209.439 236 176.792V59.208C236 26.561 209.439 0 176.792 0zM196 176.792c0 10.591-8.617 19.208-19.208 19.208H59.208C48.617 196 40 187.383 40 176.792V59.208C40 48.617 48.617 40 59.208 40h117.584C187.383 40 196 48.617 196 59.208v117.584zM452 0H336c-33.084 0-60 26.916-60 60v116c0 33.084 26.916 60 60 60h116c33.084 0 60-26.916 60-60V60c0-33.084-26.916-60-60-60zm20 176c0 11.028-8.972 20-20 20H336c-11.028 0-20-8.972-20-20V60c0-11.028 8.972-20 20-20h116c11.028 0 20 8.972 20 20v116zM176.792 276H59.208C26.561 276 0 302.561 0 335.208v117.584C0 485.439 26.561 512 59.208 512h117.584C209.439 512 236 485.439 236 452.792V335.208C236 302.561 209.439 276 176.792 276zM196 452.792c0 10.591-8.617 19.208-19.208 19.208H59.208C48.617 472 40 463.383 40 452.792V335.208C40 324.617 48.617 316 59.208 316h117.584c10.591 0 19.208 8.617 19.208 19.208v117.584zM452 276H336c-33.084 0-60 26.916-60 60v116c0 33.084 26.916 60 60 60h116c33.084 0 60-26.916 60-60V336c0-33.084-26.916-60-60-60zm20 176c0 11.028-8.972 20-20 20H336c-11.028 0-20-8.972-20-20V336c0-11.028 8.972-20 20-20h116c11.028 0 20 8.972 20 20v116z"/></symbol><symbol viewBox="0 0 512 512" id="cab-nav-7" xmlns="http://www.w3.org/2000/svg"><path d="M256 140c-63.963 0-116 52.038-116 116s52.037 116 116 116c11.947 0 23.735-1.813 35.036-5.39 10.531-3.333 16.365-14.572 13.032-25.103-3.332-10.531-14.574-16.366-25.103-13.033A75.99 75.99 0 0 1 256 332c-41.906 0-76-34.093-76-76s34.094-76 76-76 76 34.093 76 76a76.118 76.118 0 0 1-3.045 21.386c-3.101 10.602 2.98 21.709 13.582 24.81 10.604 3.101 21.709-2.98 24.811-13.582A116.145 116.145 0 0 0 372 256c0-63.962-52.037-116-116-116z"/><path d="M452 186.001h-10.071c-2.65 0-5.052-1.669-6.092-4.187l-.178-.432c-1.077-2.594-.562-5.481 1.311-7.355l7.123-7.122c23.394-23.394 23.394-61.459 0-84.853L429.951 67.91c-11.333-11.333-26.401-17.574-42.427-17.574-16.028 0-31.095 6.241-42.427 17.574l-7.121 7.121c-1.875 1.875-4.765 2.389-7.347 1.316l-.377-.156c-2.583-1.067-4.251-3.468-4.251-6.117V60c0-33.084-26.916-60-60-60h-20c-33.084 0-60 26.916-60 60v10.074c0 2.649-1.668 5.05-4.229 6.107l-.391.162c-2.591 1.078-5.481.563-7.354-1.311l-7.122-7.122c-11.332-11.333-26.4-17.574-42.427-17.574S93.384 56.577 82.051 67.91L67.909 82.05c-23.394 23.395-23.394 61.459.001 84.854l7.121 7.121c1.874 1.875 2.388 4.762 1.281 7.43l-.121.292c-1.066 2.583-3.469 4.252-6.118 4.252H60c-33.084 0-60 26.916-60 60v20c0 33.084 26.916 60 60 60h10.072c2.65 0 5.051 1.669 6.092 4.187l.178.432c1.077 2.594.562 5.481-1.312 7.355l-7.121 7.122c-11.333 11.333-17.574 26.4-17.574 42.427 0 16.026 6.241 31.093 17.573 42.426L82.05 444.09c11.333 11.333 26.401 17.574 42.427 17.574 16.028 0 31.095-6.241 42.427-17.574l7.121-7.121c1.873-1.875 4.764-2.389 7.347-1.316l.377.156c2.583 1.067 4.251 3.468 4.251 6.117V452c0 33.084 26.916 60 60 60h20c33.084 0 60-26.916 60-60v-10.074c0-2.649 1.668-5.05 4.229-6.107l.391-.162c2.593-1.076 5.481-.562 7.354 1.311l7.122 7.122c11.332 11.333 26.4 17.574 42.427 17.574s31.094-6.241 42.427-17.574l14.142-14.142c11.332-11.332 17.573-26.4 17.573-42.426 0-16.027-6.241-31.094-17.573-42.426l-7.122-7.122c-1.875-1.874-2.389-4.761-1.312-7.355l.151-.366c1.067-2.583 3.469-4.252 6.118-4.252H452c33.084 0 60-26.916 60-60v-20c0-33.084-26.916-60-60-60zM472 266c0 11.028-8.972 20-20 20h-10.073c-18.905 0-35.818 11.376-43.089 28.983l-.13.314c-7.298 17.599-3.384 37.6 9.976 50.961l7.123 7.122a19.87 19.87 0 0 1 5.857 14.142c0 5.342-2.08 10.364-5.858 14.142l-14.141 14.142a19.876 19.876 0 0 1-14.143 5.858 19.865 19.865 0 0 1-14.142-5.858l-7.123-7.123c-13.368-13.365-33.381-17.276-50.991-9.962l-.282.117C297.377 406.108 286 423.021 286 441.926V452c0 11.028-8.972 20-20 20h-20c-11.028 0-20-8.972-20-20v-10.074c0-18.905-11.377-35.818-29.005-43.097l-.27-.112a47.223 47.223 0 0 0-18.137-3.636 46.36 46.36 0 0 0-32.846 13.603l-7.122 7.123a19.87 19.87 0 0 1-14.142 5.857 19.87 19.87 0 0 1-14.142-5.858l-14.142-14.142a19.868 19.868 0 0 1-5.858-14.142c0-5.342 2.08-10.365 5.858-14.142l7.122-7.122c13.361-13.361 17.275-33.362 9.976-50.961l-.13-.314C105.89 297.376 88.977 286 70.073 286H60c-11.028 0-20-8.972-20-20v-20c0-11.028 8.972-20 20-20h10.073c18.905 0 35.818-11.376 43.116-29.047l.093-.227c7.312-17.604 3.4-37.616-9.967-50.984l-7.121-7.121c-7.799-7.799-7.799-20.487 0-28.285l14.141-14.142a19.876 19.876 0 0 1 14.143-5.858c5.343 0 10.365 2.08 14.142 5.858l7.123 7.123c13.369 13.366 33.382 17.278 50.991 9.962l.282-.117C214.623 105.892 226 88.979 226 70.074V60c0-11.028 8.972-20 20-20h20c11.028 0 20 8.972 20 20v10.074c0 18.905 11.377 35.818 29.005 43.096l.27.112c17.601 7.31 37.614 3.399 50.983-9.967l7.122-7.123a19.87 19.87 0 0 1 14.142-5.857 19.87 19.87 0 0 1 14.142 5.858l14.142 14.142c7.799 7.798 7.799 20.486.001 28.284l-7.123 7.123c-13.366 13.368-17.278 33.379-9.996 50.91l.15.365C406.11 214.624 423.023 226 441.927 226H452c11.028 0 20 8.972 20 20v20z"/></symbol><symbol viewBox="0 1 511 511.99988" id="cab-stat-1" xmlns="http://www.w3.org/2000/svg"><path d="M506.547 255.23a19.931 19.931 0 0 1-14.063 5.778 19.94 19.94 0 0 1-14.222-5.938l-15.778-15.957v92.895c0 11.043-8.953 20-20 20-11.043 0-19.996-8.957-19.996-20V200.012c0-.434.035-.86.063-1.285L270.367 44.809c-7.46-6.383-18.441-6.403-25.93-.043L90.47 198.434c.004.191.027.382.027.578v134.996c0 11.043-8.953 19.996-20 19.996-11.043 0-19.996-8.953-19.996-19.996v-95.684l-15.875 15.84c-7.812 7.8-20.477 7.79-28.281-.027-7.805-7.817-7.79-20.48.027-28.285l210.28-209.868c.27-.27.547-.527.832-.78 22.84-20.337 57.227-20.263 79.977.167.297.266.582.54.86.82l208.382 210.754c7.77 7.856 7.695 20.52-.156 28.285zm-64.063 156.774c-11.043 0-19.996 8.953-19.996 20 0 22.055-17.945 39.996-40 39.996H130.496c-11.047 0-20 8.953-20 20s8.953 20 20 20h251.992c44.11 0 79.996-35.887 79.996-79.996 0-11.047-8.953-20-20-20zM148.93 393.996h.066c3.356 0 6.512 1.305 8.887 3.68l23.46 23.476c9.938 9.938 23.126 15.399 37.169 15.399h.265c14.141-.07 27.383-5.668 37.223-15.707l88.488-89.485v39.645c0 11.047 8.957 20 20 20 11.047 0 20-8.953 20-20v-58.996c0-27.57-22.43-50-49.996-50h-60c-11.047 0-20 8.953-20 20 0 11.043 8.953 20 20 20h42.774l-89.77 90.773a12.478 12.478 0 0 1-8.918 3.77h-.062a12.468 12.468 0 0 1-8.883-3.68l-23.465-23.476c-9.938-9.938-23.125-15.399-37.164-15.399h-.285c-14.145.074-27.387 5.68-37.336 15.84L6.16 478.059c-7.7 7.921-7.52 20.582.395 28.28A19.952 19.952 0 0 0 20.496 512a19.92 19.92 0 0 0 14.34-6.059L140.012 397.77a12.489 12.489 0 0 1 8.918-3.774zm0 0"/></symbol><symbol viewBox="0 0 512 512" id="cab-stat-2" xmlns="http://www.w3.org/2000/svg"><path d="M510.702 438.722c-2.251-10.813-12.84-17.754-23.657-15.503-10.814 2.251-17.755 12.843-15.503 23.656 1.297 6.229-.248 12.613-4.236 17.519-2.31 2.841-7.461 7.606-15.999 7.606H60.693c-8.538 0-13.689-4.766-15.999-7.606-3.989-4.905-5.533-11.29-4.236-17.519 20.756-99.695 108.691-172.521 210.24-174.977a137.229 137.229 0 0 0 10.624-.001c71.532 1.716 137.648 37.947 177.687 97.66 6.151 9.175 18.574 11.625 27.75 5.474 9.174-6.151 11.625-18.575 5.473-27.749-32.817-48.944-80.47-84.534-134.804-102.417C370.538 220.036 392 180.477 392 136 392 61.01 330.991 0 256 0S120 61.01 120 136c0 44.504 21.488 84.084 54.633 108.911-30.368 9.998-58.863 25.555-83.803 46.069-45.732 37.617-77.529 90.086-89.532 147.742-3.762 18.067.745 36.623 12.363 50.909C25.222 503.847 42.365 512 60.693 512h390.613c18.329 0 35.472-8.153 47.032-22.369 11.62-14.286 16.126-32.842 12.364-50.909zM160 136c0-52.935 43.065-96 96-96s96 43.065 96 96c0 51.305-40.455 93.339-91.141 95.878a261.967 261.967 0 0 0-9.699.001C200.465 229.35 160 187.312 160 136z"/></symbol><symbol viewBox="0 0 384 384" id="cab-stat-3" xmlns="http://www.w3.org/2000/svg"><path d="M343.594 101.04c-7.953 3.847-11.281 13.417-7.434 21.366C346.672 144.121 352 167.527 352 192c0 88.223-71.777 160-160 160S32 280.223 32 192 103.777 32 192 32c36.559 0 70.902 11.938 99.328 34.52 6.895 5.503 16.977 4.351 22.48-2.567 5.504-6.914 4.352-16.984-2.57-22.48C277.586 14.727 235.238 0 192 0 86.137 0 0 86.137 0 192s86.137 192 192 192 192-86.137 192-192c0-29.336-6.406-57.45-19.04-83.527-3.839-7.97-13.44-11.29-21.366-7.434zm0 0"/><path d="M192 64c-8.832 0-16 7.168-16 16v112c0 8.832 7.168 16 16 16h80c8.832 0 16-7.168 16-16s-7.168-16-16-16h-64V80c0-8.832-7.168-16-16-16zm0 0"/></symbol><symbol viewBox="0 0 512 512" id="cab-stat-4" xmlns="http://www.w3.org/2000/svg"><path d="M312.942 424.774L276 461.28V276c0-11.046-8.954-20-20-20s-20 8.954-20 20v183.303l-34.942-34.529c-7.857-7.764-20.52-7.688-28.284.168-7.764 7.857-7.688 20.52.168 28.284l41.589 41.098C225.878 505.724 240.955 512 257 512s31.122-6.276 42.469-17.676l41.589-41.098c7.856-7.764 7.932-20.427.168-28.284-7.765-7.857-20.427-7.933-28.284-.168zM492 276c-11.046 0-20 8.954-20 20 0 22.056-17.944 40-40 40h-96c-11.046 0-20 8.954-20 20s8.954 20 20 20h96c44.112 0 80-35.888 80-80 0-11.046-8.954-20-20-20z"/><path d="M311.172 253.815a19.898 19.898 0 0 0 10.809 3.187c6.573 0 13.011-3.237 16.834-9.174C350.712 229.354 357 208.277 357 186.878c0-59.551-45.309-108-101-108s-101 48.449-101 108c0 22.906 5.798 43.438 17.233 61.024 6.021 9.26 18.41 11.886 27.669 5.865 9.26-6.021 11.886-18.409 5.865-27.669-7.144-10.989-10.767-24.183-10.767-39.22 0-37.495 27.364-68 61-68s61 30.505 61 68c0 13.702-4.085 27.29-11.815 39.293-5.98 9.288-3.3 21.664 5.987 27.644z"/><circle cx="415" cy="187" r="20"/><circle cx="97" cy="187" r="20"/><path d="M432 0H80C35.888 0 0 35.888 0 80v216c0 44.112 35.888 80 80 80h96c11.046 0 20-8.954 20-20s-8.954-20-20-20H80c-22.056 0-40-17.944-40-40V80c0-22.056 17.944-40 40-40h352c22.056 0 40 17.944 40 40v116c0 11.046 8.954 20 20 20s20-8.954 20-20V80c0-44.112-35.888-80-80-80z"/></symbol><symbol viewBox="0 0 512 512" id="calendar" xmlns="http://www.w3.org/2000/svg"><circle cx="386" cy="210" r="20"/><path d="M432 40h-26V20c0-11.046-8.954-20-20-20s-20 8.954-20 20v20h-91V20c0-11.046-8.954-20-20-20s-20 8.954-20 20v20h-90V20c0-11.046-8.954-20-20-20s-20 8.954-20 20v20H80C35.888 40 0 75.888 0 120v312c0 44.112 35.888 80 80 80h153c11.046 0 20-8.954 20-20s-8.954-20-20-20H80c-22.056 0-40-17.944-40-40V120c0-22.056 17.944-40 40-40h25v20c0 11.046 8.954 20 20 20s20-8.954 20-20V80h90v20c0 11.046 8.954 20 20 20s20-8.954 20-20V80h91v20c0 11.046 8.954 20 20 20s20-8.954 20-20V80h26c22.056 0 40 17.944 40 40v114c0 11.046 8.954 20 20 20s20-8.954 20-20V120c0-44.112-35.888-80-80-80z"/><path d="M391 270c-66.72 0-121 54.28-121 121s54.28 121 121 121 121-54.28 121-121-54.28-121-121-121zm0 202c-44.663 0-81-36.336-81-81s36.337-81 81-81 81 36.336 81 81-36.337 81-81 81z"/><path d="M420 371h-9v-21c0-11.046-8.954-20-20-20s-20 8.954-20 20v41c0 11.046 8.954 20 20 20h29c11.046 0 20-8.954 20-20s-8.954-20-20-20z"/><circle cx="299" cy="210" r="20"/><circle cx="212" cy="297" r="20"/><circle cx="125" cy="210" r="20"/><circle cx="125" cy="297" r="20"/><circle cx="125" cy="384" r="20"/><circle cx="212" cy="384" r="20"/><circle cx="212" cy="210" r="20"/></symbol><symbol viewBox="0 0 512 512" id="cert" xmlns="http://www.w3.org/2000/svg"><path d="M247 233c-50.729 0-92 41.271-92 92 0 27.346 11.998 51.939 31 68.805v98.177a19.997 19.997 0 0 0 8.962 16.678 19.993 19.993 0 0 0 18.854 1.731l32.18-13.662 32.181 13.677a19.994 19.994 0 0 0 18.858-1.725A20.002 20.002 0 0 0 306 492v-96.469c20.158-16.89 33-42.237 33-70.531 0-50.729-41.271-92-92-92zm19 228.769l-12.177-5.175a20.004 20.004 0 0 0-15.64-.003L226 461.764v-47.185A91.903 91.903 0 0 0 247 417c6.512 0 12.867-.685 19-1.978v46.747zM247 377c-28.673 0-52-23.327-52-52s23.327-52 52-52 52 23.327 52 52-23.327 52-52 52z"/><path d="M492 304.111h-70V64.263C422 28.828 393.172 0 357.737 0H80C35.888 0 0 35.888 0 80v40.889c0 11.046 8.954 20 20 20h50V369c0 32.448 19.362 61.457 49.328 73.903a19.935 19.935 0 0 0 7.664 1.535c7.841 0 15.282-4.641 18.478-12.333 4.237-10.2-.597-21.905-10.798-26.142C119.685 399.738 110 385.229 110 369V140.889h202c11.046 0 20-8.954 20-20V64.263C332 50.884 342.884 40 356.263 40h1.475C371.116 40 382 50.884 382 64.263v320.475a63.89 63.89 0 0 0 4.771 24.263H366c-11.046 0-20 8.954-20 20s8.954 20 20 20h82c.09 0 .176-.012.266-.013C483.457 448.7 512 419.995 512 384.737v-60.626c0-11.046-8.954-20-20-20zM292 64.263v36.626H40V80c0-22.056 17.944-40 40-40h216.755A63.92 63.92 0 0 0 292 64.263zm180 320.474C472 398.116 461.116 409 447.737 409h-1.475C432.884 409 422 398.116 422 384.737v-40.626h50v40.626z"/></symbol><symbol viewBox="0 0 492 492" id="check" xmlns="http://www.w3.org/2000/svg"><path d="M484.128 104.478l-16.116-16.116c-5.064-5.068-11.816-7.856-19.024-7.856s-13.964 2.788-19.028 7.856L203.508 314.81 62.024 173.322c-5.064-5.06-11.82-7.852-19.028-7.852-7.204 0-13.956 2.792-19.024 7.852l-16.12 16.112C2.784 194.51 0 201.27 0 208.47c0 7.204 2.784 13.96 7.852 19.028l159.744 159.736c.212.3.436.58.696.836l16.12 15.852c5.064 5.048 11.82 7.572 19.084 7.572h.084c7.212 0 13.968-2.524 19.024-7.572l16.124-15.992c.26-.256.48-.468.612-.684l244.784-244.76c10.5-10.476 10.5-27.52.004-38.008z"/></symbol><symbol viewBox="0 0 512.105 512.105" id="contract" xmlns="http://www.w3.org/2000/svg"><path d="M128.052 325.818c-38.4 0-69.818 31.418-69.818 69.818 0 20.945 9.309 39.564 23.273 52.364v52.364c0 3.491 2.327 6.982 4.655 9.309 3.491 2.327 6.982 3.491 10.473 1.164l31.418-10.473 31.418 10.473c1.164 0 2.327 1.164 3.491 1.164 2.327 0 4.655-1.164 6.982-2.327 3.491-2.327 4.655-5.818 4.655-9.309V448c13.964-12.8 23.273-31.418 23.273-52.364-.001-38.4-31.42-69.818-69.82-69.818zm23.273 158.255l-19.782-6.982c-2.327-1.164-4.655-1.164-6.982 0l-19.782 6.982V460.8c6.982 2.327 15.127 4.655 23.273 4.655s16.291-1.164 23.273-4.655v23.273zm-23.273-41.891c-25.6 0-46.545-20.945-46.545-46.545s20.945-46.545 46.545-46.545 46.545 20.945 46.545 46.545c.001 25.599-20.945 46.545-46.545 46.545z"/><circle cx="128.052" cy="395.636" r="23.273"/><path d="M488.78 216.436l-6.982-6.982c-6.982-6.982-17.455-11.636-27.927-11.636-10.473 0-20.945 4.655-27.927 11.636l-41.891 41.891V112.873c0-15.127-5.818-30.255-17.455-40.727l-54.691-54.691C301.434 5.818 287.471 0 271.18 0H46.598C26.816 0 11.689 15.127 11.689 34.909v418.909c0 19.782 15.127 34.909 34.909 34.909h11.636c6.982 0 11.636-4.655 11.636-11.636s-4.655-11.636-11.636-11.636H46.598c-6.982 0-11.636-4.655-11.636-11.636V34.909c0-6.982 4.655-11.636 11.636-11.636h209.455c12.8 0 23.273 10.473 23.273 23.273v23.273c0 19.782 15.127 34.909 34.909 34.909h23.273c12.8 0 23.273 10.473 23.273 23.273v139.636c0 2.327 1.164 3.491 1.164 5.818l-67.491 67.491c-1.164 1.164-2.327 3.491-3.491 5.818l-9.309 48.873h-25.6c-6.982 0-11.636 4.655-11.636 11.636 0 6.982 4.655 11.636 11.636 11.636h37.236l58.182-11.636c2.327 0 4.655-1.164 5.818-3.491l131.49-131.491c6.982-6.982 11.636-17.455 11.636-27.927s-4.654-20.946-11.636-27.928zM337.507 81.455h-23.273c-6.982 0-11.636-4.655-11.636-11.636V46.545c0-2.327 0-4.655-1.164-8.145l43.055 43.055h-6.982zm-31.418 310.69l3.491-19.782 16.291 16.291-19.782 3.491zM472.489 256L349.143 379.345l-30.255-30.255 123.345-123.345c5.818-5.818 17.455-5.818 23.273 0l6.982 6.982c3.491 3.491 4.655 6.982 4.655 11.636s-1.163 8.146-4.654 11.637zM372.416 407.273c-6.982 0-11.636 4.655-11.636 11.636v34.909c0 6.982-4.655 11.636-11.636 11.636H197.871c-6.982 0-11.636 4.655-11.636 11.636s4.655 11.636 11.636 11.636h151.273c19.782 0 34.909-15.127 34.909-34.909v-34.909c-.001-6.981-4.655-11.635-11.637-11.635z"/><path d="M186.234 139.636H69.871c-6.982 0-11.636 4.655-11.636 11.636 0 6.982 4.655 11.636 11.636 11.636h116.364c6.982 0 11.636-4.655 11.636-11.636 0-6.981-4.655-11.636-11.637-11.636zm116.364 46.546H162.962c-6.982 0-11.636 4.655-11.636 11.636s4.655 11.636 11.636 11.636h139.636c6.982 0 11.636-4.655 11.636-11.636s-4.654-11.636-11.636-11.636zm0-46.546H232.78c-6.982 0-11.636 4.655-11.636 11.636 0 6.982 4.655 11.636 11.636 11.636h69.818c6.982 0 11.636-4.655 11.636-11.636 0-6.981-4.654-11.636-11.636-11.636zM232.78 93.091h-69.818c-6.982 0-11.636 4.655-11.636 11.636s4.655 11.636 11.636 11.636h69.818c6.982 0 11.636-4.655 11.636-11.636s-4.654-11.636-11.636-11.636zm-58.182 139.636H69.871c-6.982 0-11.636 4.655-11.636 11.636S62.889 256 69.871 256h104.727c6.982 0 11.636-4.655 11.636-11.636s-4.654-11.637-11.636-11.637zm-58.182 46.546H69.871c-6.982 0-11.636 4.655-11.636 11.636s4.655 11.636 11.636 11.636h46.545c6.982 0 11.636-4.655 11.636-11.636s-4.654-11.636-11.636-11.636zm0-93.091H69.871c-6.982 0-11.636 4.655-11.636 11.636s4.655 11.636 11.636 11.636h46.545c6.982 0 11.636-4.655 11.636-11.636s-4.654-11.636-11.636-11.636zm186.182 46.545h-81.455c-6.982 0-11.636 4.655-11.636 11.636S214.162 256 221.143 256h81.455c6.982 0 11.636-4.655 11.636-11.636s-4.654-11.637-11.636-11.637zm-46.546 46.546h-93.091c-6.982 0-11.636 4.655-11.636 11.636s4.655 11.636 11.636 11.636h93.091c6.982 0 11.636-4.655 11.636-11.636s-4.654-11.636-11.636-11.636z"/></symbol><symbol viewBox="-40 0 512 512" id="copy" xmlns="http://www.w3.org/2000/svg"><path d="M271 512H80c-44.113 0-80-35.887-80-80V161c0-44.113 35.887-80 80-80h191c44.113 0 80 35.887 80 80v271c0 44.113-35.887 80-80 80zM80 121c-22.055 0-40 17.945-40 40v271c0 22.055 17.945 40 40 40h191c22.055 0 40-17.945 40-40V161c0-22.055-17.945-40-40-40zm351 261V80c0-44.113-35.887-80-80-80H129c-11.047 0-20 8.953-20 20s8.953 20 20 20h222c22.055 0 40 17.945 40 40v302c0 11.047 8.953 20 20 20s20-8.953 20-20zm0 0"/></symbol><symbol viewBox="0 0 256 256" id="dash" xmlns="http://www.w3.org/2000/svg"><path d="M128 256c70.692 0 128-57.308 128-128C256 57.308 198.692 0 128 0 57.308 0 0 57.308 0 128c0 70.692 57.308 128 128 128zM71.519 103.269c.12-.432.217-.86.355-1.273 2.469-7.398 4.942-14.794 7.416-22.19.43-1.288.433-1.291 1.816-1.291l73.246-.001c13.361 0 26.722.011 40.083-.007 3.812-.006 7.342.988 10.646 2.822 1.776.985 3.177 2.383 4.25 4.121 1.79 2.898 2.648 6.058 3.033 9.427.388 3.411-.23 6.586-1.363 9.786-1.548 4.37-2.85 8.827-4.257 13.247-3.595 11.294-7.17 22.595-10.8 33.878-.76 2.36-2.012 4.515-3.188 6.695-2.382 4.414-5.868 7.847-9.642 11.047-2.749 2.331-5.876 4.063-8.97 5.866-2.835 1.652-5.938 2.332-9.125 2.719-1.566.19-3.158.222-4.738.223-37.19.011-74.382.01-111.573.007-.541 0-1.082-.035-1.775-.058.098-.475.134-.838.247-1.175a16777.6 16777.6 0 0 1 7.59-22.684c.345-1.031.359-1.031 1.576-1.031 14.98-.002 29.96-.001 44.94-.001h56.509c1.132-.007 1.138-.005 1.5-1.112 2.603-7.97 5.2-15.941 7.805-23.91 2.54-7.774 5.086-15.546 7.625-23.32.136-.415.235-.843.388-1.399-.54-.031-.97-.079-1.402-.079-7.06-.004-14.12-.003-21.179-.003-26.378 0-52.756 0-79.134-.005-.604 0-1.239.115-1.88-.3m-28.282 36.294c.15-.537.24-.96.386-1.363 2.311-6.417 4.63-12.831 6.947-19.246.21-.58.42-1.16.626-1.742.144-.404.415-.608.856-.587.274.013.549-.002.824-.002 19.402 0 38.804 0 58.207.003.47 0 .94.039 1.558.066-.126.505-.196.897-.32 1.271-2.265 6.8-4.536 13.596-6.808 20.393-.436 1.303-.442 1.305-1.803 1.305H47.46c-1.03 0-2.06.007-3.09-.004-.33-.004-.661-.053-1.133-.094" fill-rule="evenodd"/></symbol><symbol id="dash-logo" viewBox="0 0 72.2 42.52" xmlns="http://www.w3.org/2000/svg"><defs><style>.axcls-1{fill:#363635}</style></defs><title>Artboard 57</title><path class="axcls-1" d="M72.1 6.74a7.76 7.76 0 0 0-1.1-3.5A5 5 0 0 0 68.36.83 7.93 7.93 0 0 0 64.59 0h-49l-3.47 10.52h44.36l-7 21.48H5.13L1.62 42.52h49.19a13.34 13.34 0 0 0 4.29-.83A28.68 28.68 0 0 0 59.39 39a20.45 20.45 0 0 0 3.51-3.5 22.8 22.8 0 0 0 2.16-4.05L71.56 11a7.57 7.57 0 0 0 .54-4.28z"/><path class="axcls-1" d="M29.61 16.39H3.51L0 26.1h26.37z"/></symbol><symbol viewBox="0 0 2000 2000" id="doge" xmlns="http://www.w3.org/2000/svg"><path d="M1024 659H881.12v281.69h224.79v117.94H881.12v281.67H1031c38.51 0 316.16 4.35 315.73-327.72S1077.44 659 1024 659z"/><path d="M1000 0C447.71 0 0 447.71 0 1000s447.71 1000 1000 1000 1000-447.71 1000-1000S1552.29 0 1000 0zm39.29 1540.1H677.14v-481.46H549.48V940.7h127.65V459.21h310.82c73.53 0 560.56-15.27 560.56 549.48 0 574.09-509.21 531.41-509.21 531.41z"/></symbol><symbol id="doge-logo" viewBox="0 0 44.51 48.19" xmlns="http://www.w3.org/2000/svg"><defs><style>.azcls-1{fill:#363635}</style></defs><title>Artboard 56</title><path class="azcls-1" d="M21.82 48.16s22.69 1.9 22.69-23.68C44.51-.68 22.81 0 19.53 0H5.69v21.45H0v5.26h5.69v21.45zm-7-21.45h10v-5.26h-10V8.9h6.36c2.38 0 14.36 1 14.38 15.76s-12.35 14.6-14.07 14.6h-6.71z"/></symbol><symbol viewBox="0 0 512 512" id="dollar" xmlns="http://www.w3.org/2000/svg"><path d="M508.41 244.793c-7.249-17.482-24.172-28.779-43.112-28.779H423.01c-11.047 0-20.001 8.955-20.001 20.001 0 11.047 8.955 20.001 20.001 20.001h42.288c3.881 0 5.524 2.568 6.159 4.098.768 1.853 1.144 4.604-1.43 7.182L271.422 466.161c-7.828 7.818-20.568 7.818-28.465-.066L41.979 267.306c-2.581-2.578-2.208-5.331-1.439-7.186.634-1.532 2.277-4.103 6.161-4.103h46.288c11.047 0 20.001-8.955 20.001-20.001 0-11.047-8.955-20.001-20.001-20.001H46.701c-18.956 0-35.884 11.31-43.126 28.813-7.234 17.48-3.252 37.416 10.207 50.853L214.76 494.47c11.706 11.687 27.077 17.531 42.455 17.53 15.383-.001 30.772-5.85 42.491-17.551l198.628-198.885c13.36-13.381 17.316-33.31 10.076-50.771z"/><path d="M221.078 320.021h14.92v21.001c0 11.047 8.955 20.001 20.001 20.001S276 352.068 276 341.022v-21.001h6.019c38.591 0 69.986-31.429 69.986-70.062v-23.058c0-38.537-31.396-69.891-69.986-69.891h-45.192c-16.449 0-29.831-13.562-29.831-30.231v-13.715c0-16.575 13.382-30.059 29.831-30.059h43.822c11.774 0 21.353 9.421 21.353 21.001 0 11.047 8.955 20.001 20.001 20.001s20.001-8.955 20.001-20.001c0-33.638-27.524-61.004-61.356-61.004H276V20.001C276.002 8.955 267.047 0 256.001 0 244.954 0 236 8.955 236 20.001v23.023c-38.124.449-69.004 31.687-69.004 70.04v13.715c0 38.727 31.327 70.234 69.834 70.234h45.192c16.533 0 29.983 13.408 29.983 29.888v23.058c0 16.575-13.45 30.059-29.983 30.059h-60.941c-11.428 0-21.082-10.076-21.082-22.001 0-11.047-8.955-20.001-20.001-20.001-11.047 0-20.001 8.955-20.001 20.001-.004 34.189 27.398 62.004 61.081 62.004z"/></symbol><symbol viewBox="0 0 448.941 448.941" id="dollar1" xmlns="http://www.w3.org/2000/svg"><path d="M336.706 112.235V56.118H252.53V0h-56.118v56.118h-28.059c-30.95 0-56.118 25.168-56.118 56.118v84.176c0 30.95 25.168 56.118 56.118 56.118h112.235v84.176H112.235v56.118h84.176v56.118h56.118v-56.118h28.059c30.95 0 56.118-25.168 56.118-56.118V252.53c0-30.95-25.168-56.118-56.118-56.118H168.353v-84.176h168.353z"/></symbol><symbol viewBox="0 0 226.777 226.777" id="eth" xmlns="http://www.w3.org/2000/svg"><path d="M113.313 0C50.732 0 0 50.732 0 113.313s50.732 113.313 113.313 113.313 113.313-50.732 113.313-113.313S175.894 0 113.313 0zm-1.469 188.386l-44.78-63.344 44.78 26.218v37.126zm0-46.41l-45.083-26.408 45.083-19.748v46.156zm0-49.329l-43.631 19.11 43.631-73.306v54.196zm2.906-54.218l44.244 73.6-44.244-19.382V38.429zm0 149.957V151.26l44.78-26.218-44.78 63.344zm0-46.409V95.821l45.116 19.762-45.116 26.394z"/></symbol><symbol id="eth-logo" viewBox="0 0 42.32 68.03" xmlns="http://www.w3.org/2000/svg"><defs><style>.bdcls-1{fill:#363635}</style></defs><title>Artboard 58</title><path class="bdcls-1" d="M21.65 47.38l20.67-12.22-20.67-9.4v21.62zm0-22.69l20.49 9.32L21.65 0v24.69zM.67 39.85l20 28.18V51.67l-20-11.82zm40.99 0L21.65 51.67v16.36l20.01-28.18zm-20.99 7.53V25.76L0 35.16l20.67 12.22zm0-47.38L.18 34.01l20.49-9.32V0z"/></symbol><symbol viewBox="0 0 96.124 96.123" id="fb" xmlns="http://www.w3.org/2000/svg"><path d="M72.089.02L59.624 0C45.62 0 36.57 9.285 36.57 23.656v10.907H24.037a1.96 1.96 0 0 0-1.96 1.961v15.803a1.96 1.96 0 0 0 1.96 1.96H36.57v39.876a1.96 1.96 0 0 0 1.96 1.96h16.352a1.96 1.96 0 0 0 1.96-1.96V54.287h14.654a1.96 1.96 0 0 0 1.96-1.96l.006-15.803a1.963 1.963 0 0 0-1.961-1.961H56.842v-9.246c0-4.444 1.059-6.7 6.848-6.7l8.397-.003a1.96 1.96 0 0 0 1.959-1.96V1.98A1.96 1.96 0 0 0 72.089.02z"/></symbol><symbol viewBox="0 0 169.063 169.063" id="inst" xmlns="http://www.w3.org/2000/svg"><path d="M122.406 0H46.654C20.929 0 0 20.93 0 46.655v75.752c0 25.726 20.929 46.655 46.654 46.655h75.752c25.727 0 46.656-20.93 46.656-46.655V46.655C169.063 20.93 148.133 0 122.406 0zm31.657 122.407c0 17.455-14.201 31.655-31.656 31.655H46.654C29.2 154.063 15 139.862 15 122.407V46.655C15 29.201 29.2 15 46.654 15h75.752c17.455 0 31.656 14.201 31.656 31.655v75.752z"/><path d="M84.531 40.97c-24.021 0-43.563 19.542-43.563 43.563 0 24.02 19.542 43.561 43.563 43.561s43.563-19.541 43.563-43.561c0-24.021-19.542-43.563-43.563-43.563zm0 72.123c-15.749 0-28.563-12.812-28.563-28.561 0-15.75 12.813-28.563 28.563-28.563s28.563 12.813 28.563 28.563c0 15.749-12.814 28.561-28.563 28.561zm45.39-84.842c-2.89 0-5.729 1.17-7.77 3.22a11.053 11.053 0 0 0-3.23 7.78c0 2.891 1.18 5.73 3.23 7.78 2.04 2.04 4.88 3.22 7.77 3.22 2.9 0 5.73-1.18 7.78-3.22 2.05-2.05 3.22-4.89 3.22-7.78 0-2.9-1.17-5.74-3.22-7.78-2.04-2.05-4.88-3.22-7.78-3.22z"/></symbol><symbol viewBox="0 0 400.004 400.004" id="left-arrow" xmlns="http://www.w3.org/2000/svg"><path d="M382.688 182.686H59.116l77.209-77.214c6.764-6.76 6.764-17.726 0-24.485-6.764-6.764-17.73-6.764-24.484 0L5.073 187.757c-6.764 6.76-6.764 17.727 0 24.485l106.768 106.775a17.252 17.252 0 0 0 12.242 5.072c4.43 0 8.861-1.689 12.242-5.072 6.764-6.76 6.764-17.726 0-24.484l-77.209-77.218h323.572c9.562 0 17.316-7.753 17.316-17.315 0-9.562-7.753-17.314-17.316-17.314z"/></symbol><symbol viewBox="0 0 477.867 477.867" id="list" xmlns="http://www.w3.org/2000/svg"><path d="M426.667 0H51.2C22.923 0 0 22.923 0 51.2v375.467c0 28.277 22.923 51.2 51.2 51.2h375.467c28.277 0 51.2-22.923 51.2-51.2V51.2c0-28.277-22.923-51.2-51.2-51.2zm17.066 426.667c0 9.426-7.641 17.067-17.067 17.067H51.2c-9.426 0-17.067-7.641-17.067-17.067V51.2c0-9.426 7.641-17.067 17.067-17.067h375.467c9.426 0 17.067 7.641 17.067 17.067v375.467z"/><path d="M153.6 102.4h-51.2c-9.426 0-17.067 7.641-17.067 17.067s7.641 17.067 17.067 17.067h51.2c9.426 0 17.067-7.641 17.067-17.067S163.026 102.4 153.6 102.4zm221.867 0h-153.6c-9.426 0-17.067 7.641-17.067 17.067s7.641 17.067 17.067 17.067h153.6c9.426 0 17.067-7.641 17.067-17.067s-7.642-17.067-17.067-17.067zM153.6 221.867h-51.2c-9.426 0-17.067 7.641-17.067 17.067S92.974 256 102.4 256h51.2c9.426 0 17.067-7.641 17.067-17.067s-7.641-17.066-17.067-17.066zm221.867 0h-153.6c-9.426 0-17.067 7.641-17.067 17.067S212.441 256 221.867 256h153.6c9.426 0 17.067-7.641 17.067-17.067s-7.642-17.066-17.067-17.066zM153.6 341.333h-51.2c-9.426 0-17.067 7.641-17.067 17.067s7.641 17.067 17.067 17.067h51.2c9.426 0 17.067-7.641 17.067-17.067s-7.641-17.067-17.067-17.067zm221.867 0h-153.6c-9.426 0-17.067 7.641-17.067 17.067s7.641 17.067 17.067 17.067h153.6c9.426 0 17.067-7.641 17.067-17.067s-7.642-17.067-17.067-17.067z"/></symbol><symbol viewBox="0 0 512 512" id="logout" xmlns="http://www.w3.org/2000/svg"><path d="M432 0H80C35.888 0 0 35.888 0 80v20c0 11.046 8.954 20 20 20s20-8.954 20-20V80c0-22.056 17.944-40 40-40h352c22.056 0 40 17.944 40 40v352c0 22.056-17.944 40-40 40H80c-22.056 0-40-17.944-40-40v-20c0-11.046-8.954-20-20-20s-20 8.954-20 20v20c0 44.112 35.888 80 80 80h352c44.112 0 80-35.888 80-80V80c0-44.112-35.888-80-80-80z"/><path d="M45.991 270.278a8.592 8.592 0 0 0-.134-.136c-7.798-7.798-7.798-20.486.041-28.325l74.284-74.716c7.788-7.833 7.751-20.496-.082-28.284-7.833-7.787-20.496-7.751-28.284.082l-74.243 74.675c-23.369 23.369-23.394 61.379-.073 84.779l74.224 75.653A19.932 19.932 0 0 0 106.001 380a19.93 19.93 0 0 0 14.004-5.723c7.885-7.736 8.006-20.399.27-28.283l-74.284-75.716z"/><path d="M333 236H120c-11.046 0-20 8.954-20 20s8.954 20 20 20h213c11.046 0 20-8.954 20-20s-8.954-20-20-20z"/></symbol><symbol viewBox="0 0 226.777 226.777" id="ltc" xmlns="http://www.w3.org/2000/svg"><path d="M113.441 0C50.789 0 0 50.79 0 113.443c0 62.654 50.789 113.441 113.441 113.441 62.654 0 113.443-50.787 113.443-113.441C226.885 50.79 176.096 0 113.441 0zm44.036 168.762H68.839l7.45-35.566-14.486 9.933 3.519-19.463 15.151-10.43 14.862-70.939h27.671l-10.232 48.71L148.8 66.213l-4.222 20.167-36.02 24.693-7.126 33.93H162.4l-4.923 23.759z"/></symbol><symbol id="ltc-logo" viewBox="0 0 46.48 51.02" xmlns="http://www.w3.org/2000/svg"><defs><style>.bkcls-1{fill:#363635}</style></defs><title>Artboard 54</title><path class="bkcls-1" d="M20.26 41l3.31-12.48 7.85-2.86 1.95-7.34-.07-.18L25.58 21l5.56-21H15.36L8.08 27.35 2 29.57l-2 7.56 6.07-2.22L1.78 51h42l2.7-10z"/></symbol><symbol viewBox="0 0 512 512" id="mail" xmlns="http://www.w3.org/2000/svg"><path d="M492 291.5c11.046 0 20-8.954 20-20v-131c0-44.112-35.888-80-80-80H80c-44.112 0-80 35.888-80 80v231c0 44.112 35.888 80 80 80h352c44.112 0 80-35.888 80-80 0-11.046-8.954-20-20-20s-20 8.954-20 20c0 22.056-17.944 40-40 40H80c-22.056 0-40-17.944-40-40V144.738l173.755 108.045c13.029 8.101 27.637 12.152 42.245 12.152 14.608 0 29.216-4.051 42.245-12.152L472 144.738V271.5c0 11.046 8.954 20 20 20zm-214.878-72.686c-13.028 8.101-29.216 8.102-42.244 0L56.689 108.012A39.783 39.783 0 0 1 80 100.5h352a39.784 39.784 0 0 1 23.311 7.513L277.122 218.814z"/></symbol><symbol viewBox="0 0 512 512" id="monero" xmlns="http://www.w3.org/2000/svg"><circle fill="#fff" cx="256" cy="256" r="256"/><path d="M364.2 393.163h107.979c-45.411 71.439-125.262 118.836-216.178 118.836S85.235 464.603 39.824 393.163h107.969V257.328l108.209 108.146L364.2 257.328v135.835z"/><path d="M512 256.001c0 28.599-4.692 56.1-13.343 81.784H421.21V122.537L256.002 286.062 90.794 122.537v215.248H13.346C4.694 312.102.003 284.6.003 256.001.003 114.617 114.617.003 256.001.003S512 114.616 512 256.001z"/></symbol><symbol id="monero-logo" viewBox="0 0 90.97 45.35" xmlns="http://www.w3.org/2000/svg"><defs><style>.bncls-1{fill:#363635}</style></defs><title>Artboard 55</title><path class="bncls-1" d="M90.97 45.35v-8.84H73.65V0l-28.2 28.21L17.24 0v36.51H0v8.84h26.65V22.38l18.8 18.8 18.79-18.8v22.97h26.73z"/></symbol><symbol viewBox="0 0 512 512" id="pass" xmlns="http://www.w3.org/2000/svg"><path d="M460 362c11.046 0 20-8.954 20-20v-74c0-44.112-35.888-80-80-80h-24.037v-70.534C375.963 52.695 322.131 0 255.963 0s-120 52.695-120 117.466V188H112c-44.112 0-80 35.888-80 80v164c0 44.112 35.888 80 80 80h288c44.112 0 80-35.888 80-80 0-11.046-8.954-20-20-20s-20 8.954-20 20c0 22.056-17.944 40-40 40H112c-22.056 0-40-17.944-40-40V268c0-22.056 17.944-40 40-40h288c22.056 0 40 17.944 40 40v74c0 11.046 8.954 20 20 20zM335.963 188h-160v-70.534c0-42.715 35.888-77.466 80-77.466s80 34.751 80 77.466V188z"/><circle cx="256" cy="347" r="20"/></symbol><symbol id="payeer-logo" viewBox="0 0 75 75" xmlns="http://www.w3.org/2000/svg"><style>.st0{fill:#3499dc}.bpst1{fill:#fff}</style><path class="bpst1" d="M24.4 18.3c3.1-.5 7.5-.9 13.6-.9 6.3 0 10.6 1.2 13.6 3.5 2.8 2.3 4.7 5.9 4.7 10.3s-1.4 8-4.2 10.6c-3.5 3.3-8.5 4.7-14.5 4.7-1.4 0-2.4 0-3.5-.2v15.9h-9.9v-44l.2.1zm10 20.2c.9.2 1.9.3 3.3.3 5.4 0 8.7-2.8 8.7-7.3 0-4.2-2.8-6.6-7.8-6.6-2.1 0-3.5.2-4.2.3v13.3z"/></symbol><symbol viewBox="0 0 488.471 488.471" id="pencil" xmlns="http://www.w3.org/2000/svg"><path d="M483.999 111.318L377.152 4.472c-5.962-5.962-15.621-5.962-21.584 0L4.502 355.539A15.254 15.254 0 0 0 .03 366.331L0 473.207c0 4.04 1.61 7.93 4.472 10.792s6.752 4.472 10.792 4.472l106.876-.03c4.054 0 7.93-1.61 10.792-4.472l351.067-351.067c5.962-5.962 5.962-15.621 0-21.584zM115.796 457.94l-85.298.03.03-85.298 251.868-251.868 85.268 85.268L115.796 457.94zm273.453-273.453L303.981 99.22l62.371-62.371 85.268 85.268z"/></symbol><symbol viewBox="0 0 487.766 487.766" id="phone" xmlns="http://www.w3.org/2000/svg"><path d="M345.487 487.566c2.2.1 4.3.2 6.5.2 23.5 0 43.1-8.5 58.5-25.2l.4-.4c5.5-6.6 11.7-12.6 18.3-18.9 4.5-4.3 9.1-8.7 13.4-13.3 20.5-21.4 20.4-48.5-.2-69.1l-57-57c-9.8-10.2-21.5-15.6-33.9-15.6-12.3 0-24.1 5.3-34.2 15.4l-33.7 33.7c-3-1.7-6.1-3.2-9.1-4.7-3.8-1.9-7.3-3.7-10.4-5.6-30.9-19.6-58.9-45.2-85.7-78.1-13.5-17-22.4-31.2-28.7-45.8 8.8-8 17-16.3 24.9-24.4 2.9-2.9 5.8-5.9 8.8-8.9 21.4-21.4 21.4-47.9 0-69.2l-28.3-28.3c-3.3-3.3-6.5-6.6-9.7-9.8-6.3-6.4-12.8-13.1-19.3-19.1-9.8-9.8-21.4-14.9-33.7-14.9-12.2 0-24 5.1-34.2 14.9l-35.5 35.4c-13 13-20.4 28.8-22 47.1-1.8 22.8 2.4 47 13.2 76.2 16.7 45.1 41.8 87 79 131.8 45.3 54 99.7 96.7 161.9 126.8 23.7 11.3 55.4 24.5 90.7 26.8zm-233.7-169.3c-35.4-42.6-59.1-82.2-74.8-124.6-9.7-26.1-13.3-46.4-11.8-65.7 1.1-12.5 5.9-22.9 14.9-31.8l35.3-35.3c5.4-5.2 11.3-7.9 17.1-7.9 5.7 0 11.3 2.7 16.7 8 6.3 5.9 12.4 12.1 18.8 18.6 3.2 3.3 6.5 6.7 9.9 10l28.3 28.3c11.6 11.6 11.6 23 0 34.6-3 3-6 6-8.9 9-8.8 8.9-17 17.3-26.1 25.4l-.5.5c-8.1 8.1-6.9 15.9-4.9 21.7.1.3.2.5.3.8 7.3 17.6 17.6 34.3 33.4 54.3 28.5 35.1 58.5 62.4 91.7 83.5 4.1 2.6 8.4 4.8 12.6 6.9 3.8 1.9 7.3 3.7 10.4 5.6.4.2.7.4 1.1.6 3.2 1.6 6.3 2.4 9.5 2.4 7.9 0 12.9-5 14.5-6.7l35.5-35.5c5.4-5.4 11.2-8.2 16.9-8.2 7 0 12.7 4.4 16.4 8.2l57.2 57.2c14 14 7.6 26.6-.3 34.9-4 4.3-8.2 8.3-12.6 12.6-6.7 6.4-13.6 13.1-19.9 20.6-10.8 11.6-23.6 17-40.3 17-1.6 0-3.3-.1-4.9-.2-31.1-2-59.9-14.1-81.6-24.4-59.2-28.5-110.9-69-153.9-120.4zm156.3-229c-6.7-1.1-13 3.4-14.1 10-1.1 6.7 3.4 13 10 14.1 27.5 4.7 52.5 17.7 72.5 37.6 19.9 19.9 32.9 45 37.6 72.5 1 6 6.2 10.2 12.1 10.2.7 0 1.4-.1 2.1-.2 6.7-1.1 11.2-7.5 10-14.1-5.5-32.5-20.9-62.2-44.4-85.7-23.7-23.6-53.3-38.9-85.8-44.4zm207.1 140.2c.7 0 1.4-.1 2.1-.2 6.7-1.1 11.2-7.5 10-14.1-9.1-53.8-34.5-102.7-73.4-141.6-39-38.9-87.9-64.3-141.7-73.4-6.7-1.1-13 3.4-14.1 10-1.1 6.7 3.4 13 10 14.1 48.7 8.3 93.1 31.3 128.4 66.6s58.3 79.7 66.6 128.4c1 6 6.2 10.2 12.1 10.2z"/></symbol><symbol viewBox="0 0 376.4 376.4" id="pin" xmlns="http://www.w3.org/2000/svg"><path d="M366.259 358.398h-12.221V247.38h12.221a9 9 0 0 0 7.632-13.771l-40.321-64.51a9 9 0 0 0-7.632-4.229H205.526a9.003 9.003 0 0 0-7.632 4.229l-40.321 64.51a9.002 9.002 0 0 0 7.632 13.771h12.22v111.019h-12.22c-4.971 0-9 4.029-9 9s4.029 9 9 9h21.028c.127.002.256.002.383 0h51.216c.127.002.256.002.383 0h55.034c.127.002.256.002.383 0h51.215a12.163 12.163 0 0 0 .382 0h21.029c4.971 0 9-4.029 9-9s-4.029-9.001-8.999-9.001zm-81.819 0h-37.417v-62.393h37.417v62.393zm51.598 0H302.44v-71.393a9 9 0 0 0-9-9h-55.417a9 9 0 0 0-9 9v71.393h-33.599V247.38h140.613v111.018zM181.443 229.38l29.071-46.51h110.435l29.071 46.51H181.443zM138.608 367.4a9 9 0 0 1-9 9c-24.037 0-32.025-16.755-38.444-30.217-.872-1.831-17.438-34.538-17.438-34.538C38.608 242.629 1.142 165.864 1.142 128.468 1.142 57.631 58.771 0 129.608 0c70.836 0 128.466 57.631 128.466 128.468 0 2.429-.158 5.083-.469 7.89a9 9 0 1 1-17.891-1.983c.238-2.151.359-4.139.359-5.907C240.074 67.556 190.519 18 129.608 18S19.142 67.556 19.142 128.468c0 36.212 47.703 129.962 70.628 175.017 0 0 16.728 33.032 17.643 34.952 6.601 13.844 10.031 19.964 22.196 19.964 4.97-.001 8.999 4.029 8.999 8.999zM83.206 128.468c0 25.587 20.816 46.403 46.402 46.403s46.402-20.816 46.402-46.403-20.816-46.403-46.402-46.403-46.402 20.816-46.402 46.403zm74.805 0c0 15.662-12.741 28.403-28.402 28.403s-28.402-12.741-28.402-28.403 12.741-28.403 28.402-28.403 28.402 12.741 28.402 28.403z"/></symbol><symbol viewBox="0 0 512 512" id="play" xmlns="http://www.w3.org/2000/svg"><path d="M256 0C114.617 0 0 114.615 0 256s114.617 256 256 256 256-114.615 256-256S397.383 0 256 0zm88.48 269.57l-128 80a16.008 16.008 0 0 1-16.238.422A15.994 15.994 0 0 1 192 336V176c0-5.82 3.156-11.172 8.242-13.992a15.957 15.957 0 0 1 16.238.422l128 80c4.676 2.93 7.52 8.055 7.52 13.57s-2.844 10.641-7.52 13.57z"/></symbol><symbol id="pm-logo" viewBox="0 0 75 75" xmlns="http://www.w3.org/2000/svg"><style>.st0,.bust1{fill-rule:evenodd;clip-rule:evenodd;fill:#f00f0f}.bust1{fill:#fefefe}.st2{fill:#fff}</style><g id="buСлой_x0020_1"><g id="bu_234703568"><path id="bu_234708728" class="bust1" d="M10.1 25.2c10.5 0 13.6-1.1 17.3 1.3 4.8 3.2 4 10.1 1 12.4-6.6 5-19.7 2.7-23 1.1 8.3 1.1 15.8 1.8 19.9-1.9 2.7-2.5 1.5-8.5-.2-10-1.4-1.2-1.8-1.7-5.1-1.8-2.6.2-2.6.9-2.6 2l-.1 11.5h-3.5V28.5c.1-1.3.1-2.1-3.7-2.1v-1.2zm7.2 17.9V49c0 2.4 1.5 3.6 4.4 3.7v1.1H10.2v-1.2c2.9-.2 3.6-1.5 3.6-3.5v-6.2c1.2.2 2.4.2 3.5.2z"/><path id="bu_234708800" class="bust1" d="M35.5 49.4c.1 2.7.8 3.6 3.7 3.7v1.1h-9.3V53c2.9-.2 3.6-1.5 3.6-3.5l1.1-21c.1-1.3.1-2.1-3.7-2.1v-1.2h7.3c0 1.5.3 2.4.9 3.6L48.2 48l.1.3.2-.3 9.6-19.3c.6-1.3.9-2.1.9-3.6h7.3v1.2c-3.8 0-3.8.8-3.7 2.1l.1 21c.1 2 .8 3.3 3.6 3.5v1.2H55.6V53c2.9-.1 3.6-1 3.7-3.7L59 30.9 47.6 54.2h-.8L36.3 31l-.8 18.4z"/></g></g></symbol><symbol viewBox="0 0 512 512" id="quest" xmlns="http://www.w3.org/2000/svg"><circle cx="255.984" cy="492" r="20"/><path d="M412.979 155.775C412.321 69.765 342.147 0 255.984 0c-86.57 0-157 70.43-157 157 0 11.046 8.954 20 20 20s20-8.954 20-20c0-64.514 52.486-117 117-117s117 52.486 117 117c0 .356.009.71.028 1.062a116.936 116.936 0 0 1-71.12 106.661c-40.038 17.094-65.908 56.675-65.908 100.839V412c0 11.046 8.954 20 20 20s20-8.954 20-20v-46.438c0-28.117 16.334-53.258 41.614-64.051a156.884 156.884 0 0 0 95.418-144.516c0-.41-.013-.816-.037-1.22z"/></symbol><symbol viewBox="0 -42 426.66667 426" id="quote" xmlns="http://www.w3.org/2000/svg"><path d="M373.332.332h-64C279.914.332 256 24.27 256 53.668v64C256 147.062 279.914 171 309.332 171h64c3.648 0 7.211-.383 10.668-1.09v43.758C384 260.727 345.727 299 298.668 299h-21.336C265.535 299 256 308.559 256 320.332c0 11.777 9.535 21.336 21.332 21.336h21.336c70.59 0 128-57.41 128-128v-160c0-29.398-23.914-53.336-53.336-53.336zm-256 0h-64C23.914.332 0 24.27 0 53.668v64C0 147.062 23.914 171 53.332 171h64c3.648 0 7.211-.383 10.668-1.09v43.758C128 260.727 89.727 299 42.668 299H21.332C9.535 299 0 308.559 0 320.332c0 11.777 9.535 21.336 21.332 21.336h21.336c70.59 0 128-57.41 128-128v-160c0-29.398-23.914-53.336-53.336-53.336zm0 0"/></symbol><symbol viewBox="0 0 512.014 512.014" id="right" xmlns="http://www.w3.org/2000/svg"><path d="M459.331 100.686l-96-96a15.964 15.964 0 0 0-17.44-3.456c-5.984 2.496-9.888 8.32-9.888 14.784v48h-160c-70.688 0-128 57.312-128 128v304c0 8.832 7.168 16 16 16h64c8.832 0 16-7.168 16-16v-304c0-17.664 14.336-32 32-32h160v48c0 6.464 3.904 12.32 9.888 14.784a15.964 15.964 0 0 0 17.44-3.456l96-96c6.24-6.272 6.24-16.416 0-22.656z"/></symbol><symbol viewBox="0 0 226.777 226.777" id="ripple" xmlns="http://www.w3.org/2000/svg"><path d="M113.48.183C50.908.183.183 50.908.183 113.48c0 62.572 50.725 113.297 113.297 113.297 62.572 0 113.297-50.726 113.297-113.297C226.777 50.908 176.052.183 113.48.183zm47.419 163.777c-7.365 12.656-23.905 17.119-36.941 9.97-13.037-7.149-17.635-23.205-10.268-35.862 3.068-5.272 1.153-11.96-4.28-14.941-5.356-2.937-12.132-1.166-15.261 3.941h-.002v-.021c-.044.078-.083.155-.128.232-7.365 12.656-23.904 17.12-36.94 9.97-13.038-7.149-17.636-23.207-10.271-35.86 7.367-12.657 23.905-17.12 36.944-9.969 4.357 2.39 7.765 5.779 10.107 9.7v-.014l.002-.002c3.248 5.032 10.055 6.654 15.341 3.603 5.362-3.095 7.125-9.824 3.936-15.03-7.651-12.494-3.42-28.645 9.451-36.072 12.869-7.428 29.506-3.321 37.159 9.172 7.651 12.495 3.422 28.645-9.451 36.073a27.612 27.612 0 0 1-13.697 3.694l.012.005v.002c-6.175.207-11.081 5.161-11.007 11.191.073 6.11 5.239 11.008 11.533 10.936l-.039.021a27.627 27.627 0 0 1 13.533 3.401c13.034 7.151 17.632 23.206 10.267 35.86z"/></symbol><symbol id="ripple-logo" viewBox="0 0 52.44 56.69" xmlns="http://www.w3.org/2000/svg"><defs><style>.bzcls-1{fill:#363635}</style></defs><title>Artboard 53</title><path class="bzcls-1" d="M34.67 1.53a12 12 0 0 0-5.93 10.3 13.42 13.42 0 0 0 2 6.36C31.59 20 32 23 29 24.56a4.71 4.71 0 0 1-6.4-1.76 19.78 19.78 0 0 0-4.83-4.8 11.49 11.49 0 0 0-11.84 0 11.94 11.94 0 0 0 0 20.63 11.51 11.51 0 0 0 11.85 0 12.06 12.06 0 0 0 4.6-4.82A4.51 4.51 0 0 1 28.73 32a4.91 4.91 0 0 1 1.76 6.36 13.24 13.24 0 0 0-1.76 6.36 11.92 11.92 0 0 0 5.94 10.31 11.49 11.49 0 0 0 11.84 0 11.93 11.93 0 0 0 0-20.62 13.24 13.24 0 0 0-6.58-1.54 4.6 4.6 0 1 1 0-9.2 13.81 13.81 0 0 0 6.58-1.54 11.92 11.92 0 0 0 0-20.61A11.37 11.37 0 0 0 40.59 0a11.31 11.31 0 0 0-5.92 1.53z"/></symbol><symbol viewBox="-1 0 136 136.21852" id="search" xmlns="http://www.w3.org/2000/svg"><path d="M93.148 80.832c16.352-23.09 10.883-55.062-12.207-71.41S25.88-1.461 9.531 21.632C-6.816 44.723-1.352 76.693 21.742 93.04a51.226 51.226 0 0 0 55.653 2.3l37.77 37.544c4.077 4.293 10.862 4.465 15.155.387 4.293-4.075 4.465-10.86.39-15.153a9.21 9.21 0 0 0-.39-.39zm-41.84 3.5c-18.245.004-33.038-14.777-33.05-33.023-.004-18.246 14.777-33.04 33.027-33.047 18.223-.008 33.008 14.75 33.043 32.972.031 18.25-14.742 33.067-32.996 33.098h-.023zm0 0"/></symbol><symbol viewBox="0 0 512 512" id="settings" xmlns="http://www.w3.org/2000/svg"><path d="M256 140c-63.963 0-116 52.038-116 116s52.037 116 116 116c11.947 0 23.735-1.813 35.036-5.39 10.531-3.333 16.365-14.572 13.032-25.103-3.332-10.531-14.574-16.366-25.103-13.033A75.99 75.99 0 0 1 256 332c-41.906 0-76-34.093-76-76s34.094-76 76-76 76 34.093 76 76a76.118 76.118 0 0 1-3.045 21.386c-3.101 10.602 2.98 21.709 13.582 24.81 10.604 3.101 21.709-2.98 24.811-13.582A116.145 116.145 0 0 0 372 256c0-63.962-52.037-116-116-116z"/><path d="M452 186.001h-10.071c-2.65 0-5.052-1.669-6.092-4.187l-.178-.432c-1.077-2.594-.562-5.481 1.311-7.355l7.123-7.122c23.394-23.394 23.394-61.459 0-84.853L429.951 67.91c-11.333-11.333-26.401-17.574-42.427-17.574-16.028 0-31.095 6.241-42.427 17.574l-7.121 7.121c-1.875 1.875-4.765 2.389-7.347 1.316l-.377-.156c-2.583-1.067-4.251-3.468-4.251-6.117V60c0-33.084-26.916-60-60-60h-20c-33.084 0-60 26.916-60 60v10.074c0 2.649-1.668 5.05-4.229 6.107l-.391.162c-2.591 1.078-5.481.563-7.354-1.311l-7.122-7.122c-11.332-11.333-26.4-17.574-42.427-17.574S93.384 56.577 82.051 67.91L67.909 82.05c-23.394 23.395-23.394 61.459.001 84.854l7.121 7.121c1.874 1.875 2.388 4.762 1.281 7.43l-.121.292c-1.066 2.583-3.469 4.252-6.118 4.252H60c-33.084 0-60 26.916-60 60v20c0 33.084 26.916 60 60 60h10.072c2.65 0 5.051 1.669 6.092 4.187l.178.432c1.077 2.594.562 5.481-1.312 7.355l-7.121 7.122c-11.333 11.333-17.574 26.4-17.574 42.427 0 16.026 6.241 31.093 17.573 42.426L82.05 444.09c11.333 11.333 26.401 17.574 42.427 17.574 16.028 0 31.095-6.241 42.427-17.574l7.121-7.121c1.873-1.875 4.764-2.389 7.347-1.316l.377.156c2.583 1.067 4.251 3.468 4.251 6.117V452c0 33.084 26.916 60 60 60h20c33.084 0 60-26.916 60-60v-10.074c0-2.649 1.668-5.05 4.229-6.107l.391-.162c2.593-1.076 5.481-.562 7.354 1.311l7.122 7.122c11.332 11.333 26.4 17.574 42.427 17.574s31.094-6.241 42.427-17.574l14.142-14.142c11.332-11.332 17.573-26.4 17.573-42.426 0-16.027-6.241-31.094-17.573-42.426l-7.122-7.122c-1.875-1.874-2.389-4.761-1.312-7.355l.151-.366c1.067-2.583 3.469-4.252 6.118-4.252H452c33.084 0 60-26.916 60-60v-20c0-33.084-26.916-60-60-60zM472 266c0 11.028-8.972 20-20 20h-10.073c-18.905 0-35.818 11.376-43.089 28.983l-.13.314c-7.298 17.599-3.384 37.6 9.976 50.961l7.123 7.122a19.87 19.87 0 0 1 5.857 14.142c0 5.342-2.08 10.364-5.858 14.142l-14.141 14.142a19.876 19.876 0 0 1-14.143 5.858 19.865 19.865 0 0 1-14.142-5.858l-7.123-7.123c-13.368-13.365-33.381-17.276-50.991-9.962l-.282.117C297.377 406.108 286 423.021 286 441.926V452c0 11.028-8.972 20-20 20h-20c-11.028 0-20-8.972-20-20v-10.074c0-18.905-11.377-35.818-29.005-43.097l-.27-.112a47.223 47.223 0 0 0-18.137-3.636 46.36 46.36 0 0 0-32.846 13.603l-7.122 7.123a19.87 19.87 0 0 1-14.142 5.857 19.87 19.87 0 0 1-14.142-5.858l-14.142-14.142a19.868 19.868 0 0 1-5.858-14.142c0-5.342 2.08-10.365 5.858-14.142l7.122-7.122c13.361-13.361 17.275-33.362 9.976-50.961l-.13-.314C105.89 297.376 88.977 286 70.073 286H60c-11.028 0-20-8.972-20-20v-20c0-11.028 8.972-20 20-20h10.073c18.905 0 35.818-11.376 43.116-29.047l.093-.227c7.312-17.604 3.4-37.616-9.967-50.984l-7.121-7.121c-7.799-7.799-7.799-20.487 0-28.285l14.141-14.142a19.876 19.876 0 0 1 14.143-5.858c5.343 0 10.365 2.08 14.142 5.858l7.123 7.123c13.369 13.366 33.382 17.278 50.991 9.962l.282-.117C214.623 105.892 226 88.979 226 70.074V60c0-11.028 8.972-20 20-20h20c11.028 0 20 8.972 20 20v10.074c0 18.905 11.377 35.818 29.005 43.096l.27.112c17.601 7.31 37.614 3.399 50.983-9.967l7.122-7.123a19.87 19.87 0 0 1 14.142-5.857 19.87 19.87 0 0 1 14.142 5.858l14.142 14.142c7.799 7.798 7.799 20.486.001 28.284l-7.123 7.123c-13.366 13.368-17.278 33.379-9.996 50.91l.15.365C406.11 214.624 423.023 226 441.927 226H452c11.028 0 20 8.972 20 20v20z"/></symbol><symbol viewBox="0 0 24 24" id="sings" xmlns="http://www.w3.org/2000/svg"><path d="M19.25 24H4.75A2.752 2.752 0 0 1 2 21.25V2.75A2.752 2.752 0 0 1 4.75 0h14.5A2.752 2.752 0 0 1 22 2.75v18.5A2.752 2.752 0 0 1 19.25 24zM4.75 1.5c-.689 0-1.25.561-1.25 1.25v18.5c0 .689.561 1.25 1.25 1.25h14.5c.689 0 1.25-.561 1.25-1.25V2.75c0-.689-.561-1.25-1.25-1.25z"/><path d="M17.25 8H6.75C5.785 8 5 7.215 5 6.25v-1.5C5 3.785 5.785 3 6.75 3h10.5c.965 0 1.75.785 1.75 1.75v1.5C19 7.215 18.215 8 17.25 8zM6.75 4.5a.25.25 0 0 0-.25.25v1.5c0 .138.112.25.25.25h10.5a.25.25 0 0 0 .25-.25v-1.5a.25.25 0 0 0-.25-.25zM8 14a.75.75 0 0 1-.75-.75v-2.5a.75.75 0 0 1 1.5 0v2.5A.75.75 0 0 1 8 14z"/><path d="M9.25 12.75h-2.5a.75.75 0 0 1 0-1.5h2.5a.75.75 0 0 1 0 1.5zm8 .25h-2.5a.75.75 0 0 1 0-1.5h2.5a.75.75 0 0 1 0 1.5zm0 4.5h-2.5a.75.75 0 0 1 0-1.5h2.5a.75.75 0 0 1 0 1.5zm0 2.5h-2.5a.75.75 0 0 1 0-1.5h2.5a.75.75 0 0 1 0 1.5zm-10.5 0a.75.75 0 0 1-.53-1.281l2.5-2.5a.75.75 0 1 1 1.061 1.061l-2.5 2.5a.748.748 0 0 1-.531.22z"/><path d="M9.25 20a.744.744 0 0 1-.53-.22l-2.5-2.5a.75.75 0 1 1 1.061-1.061l2.5 2.5A.75.75 0 0 1 9.25 20z"/></symbol><symbol viewBox="0 0 512 512" id="sound" xmlns="http://www.w3.org/2000/svg"><path d="M295.166 4.873C272.465-4.699 247.404.04 229.765 17.24c-.415.405-.812.827-1.19 1.266l-113.27 131.498H80.071c-44.094 0-79.968 35.874-79.968 79.968v51.979c0 44.094 35.874 79.968 79.968 79.968h35.235l113.27 131.498c.378.439.775.862 1.19 1.266 11.658 11.367 26.532 17.317 41.826 17.316 7.932 0 15.978-1.601 23.743-4.875 22.596-9.527 36.633-30.695 36.633-55.242 0-11.042-8.95-19.992-19.992-19.992-11.042 0-19.992 8.95-19.992 19.992 0 12.306-9.325 17.194-12.183 18.399-2.855 1.203-12.716 4.422-21.584-3.716L139.618 328.881a19.99 19.99 0 0 0-15.147-6.944h-44.4c-22.047 0-39.984-17.937-39.984-39.984v-51.979c0-22.047 17.937-39.984 39.984-39.984h44.4a19.995 19.995 0 0 0 15.147-6.944L258.216 45.361c8.772-8.045 18.576-4.84 21.415-3.644 2.898 1.221 12.353 6.176 12.353 18.615v291.592c0 11.042 8.95 19.992 19.992 19.992s19.992-8.95 19.992-19.992V60.332c.002-24.637-14.101-45.887-36.802-55.459zm121.346 308.611l.459-.842c5.228-9.59 14.96-27.439 14.96-56.675 0-30.328-10.53-48.906-15.59-57.835-5.446-9.605-17.644-12.98-27.251-7.535-9.605 5.445-12.979 17.645-7.535 27.251 4.138 7.3 10.392 18.334 10.392 38.119 0 19.044-6.067 30.172-10.081 37.536l-.49.898c-5.27 9.702-1.676 21.84 8.026 27.11a19.897 19.897 0 0 0 9.524 2.428c7.091 0 13.962-3.783 17.586-10.455z"/><path d="M445.999 98.339c-7.845-7.77-20.504-7.71-28.273.135-7.77 7.845-7.71 20.503.135 28.273 34.857 34.526 54.053 80.389 54.053 129.139 0 48.85-19.196 94.768-54.053 129.294-7.845 7.77-7.905 20.429-.135 28.273a19.927 19.927 0 0 0 14.204 5.923 19.927 19.927 0 0 0 14.068-5.789c42.496-42.092 65.898-98.099 65.898-157.702.001-59.503-23.401-115.454-65.897-157.546z"/></symbol><symbol viewBox="0 0 340.18 236.08" id="team" xmlns="http://www.w3.org/2000/svg"><defs><style>.cecls-1{fill:#414042}</style></defs><title>Artboard 4фывфы</title><path class="cecls-1" d="M247.43 146.9l-21.94-12.84a11.51 11.51 0 0 0-11.63 19.87l16.32 9.56-10.31 59.1a11.5 11.5 0 0 0 9.36 13.32 11.3 11.3 0 0 0 2 .17 11.51 11.51 0 0 0 11.33-9.53L254 161.11a13.79 13.79 0 0 0-6.57-14.21zm-128.61-12.84l-21.94 12.85a13.77 13.77 0 0 0-6.54 14.2l11.42 65.44a11.52 11.52 0 0 0 11.33 9.53 11.22 11.22 0 0 0 2-.17 11.5 11.5 0 0 0 9.36-13.32l-10.31-59.1 16.33-9.56a11.51 11.51 0 1 0-11.64-19.87zm53.34-90.19a45 45 0 1 0 45 45 45.07 45.07 0 0 0-45-45zm0 67a22 22 0 1 1 22-22 22 22 0 0 1-22 22.02zM258.32 0a45 45 0 1 0 45 45 45.08 45.08 0 0 0-45-45zm0 67a22 22 0 1 1 22-22 22 22 0 0 1-22 22zm75.11 36l-21.94-12.81a11.51 11.51 0 0 0-11.63 19.87l16.32 9.56-10.31 59.1a11.52 11.52 0 0 0 9.37 13.28 11.22 11.22 0 0 0 2 .17 11.52 11.52 0 0 0 11.33-9.53l11.43-65.4a13.75 13.75 0 0 0-6.57-14.24zM126.88 45a45 45 0 1 0-45 45 45.08 45.08 0 0 0 45-45zm-45 22a22 22 0 1 1 22-22 22 22 0 0 1-22.02 22zm-53.2 23.19L6.74 103A13.78 13.78 0 0 0 .2 117.23l11.42 65.45A11.52 11.52 0 0 0 23 192.21a11.3 11.3 0 0 0 2-.17 11.51 11.51 0 0 0 9.36-13.32L24 119.62l16.32-9.56a11.51 11.51 0 1 0-11.64-19.87z" id="ceLayer_1" data-name="Layer 1"/></symbol><symbol viewBox="0 0 24 24" id="tg" xmlns="http://www.w3.org/2000/svg"><path d="M9.417 15.181l-.397 5.584c.568 0 .814-.244 1.109-.537l2.663-2.545 5.518 4.041c1.012.564 1.725.267 1.998-.931L23.93 3.821l.001-.001c.321-1.496-.541-2.081-1.527-1.714l-21.29 8.151c-1.453.564-1.431 1.374-.247 1.741l5.443 1.693L18.953 5.78c.595-.394 1.136-.176.691.218z"/></symbol><symbol viewBox="0 0 551.13 551.13" id="time" xmlns="http://www.w3.org/2000/svg"><path d="M275.565 0C123.621 0 0 123.621 0 275.565S123.621 551.13 275.565 551.13 551.13 427.509 551.13 275.565 427.509 0 275.565 0zm0 516.685c-132.955 0-241.119-108.164-241.119-241.119S142.61 34.446 275.565 34.446s241.12 108.164 241.12 241.119-108.165 241.12-241.12 241.12z"/><path d="M292.788 137.783h-34.446v144.914l91.16 91.16 24.354-24.354-81.068-81.068z"/></symbol><symbol viewBox="0 0 512.014 512.014" id="turn-right" xmlns="http://www.w3.org/2000/svg"><path d="M459.331 100.686l-96-96a15.964 15.964 0 0 0-17.44-3.456c-5.984 2.496-9.888 8.32-9.888 14.784v48h-160c-70.688 0-128 57.312-128 128v304c0 8.832 7.168 16 16 16h64c8.832 0 16-7.168 16-16v-304c0-17.664 14.336-32 32-32h160v48c0 6.464 3.904 12.32 9.888 14.784a15.964 15.964 0 0 0 17.44-3.456l96-96c6.24-6.272 6.24-16.416 0-22.656z"/></symbol><symbol viewBox="0 0 512 512" id="tw" xmlns="http://www.w3.org/2000/svg"><path d="M512 97.248c-19.04 8.352-39.328 13.888-60.48 16.576 21.76-12.992 38.368-33.408 46.176-58.016-20.288 12.096-42.688 20.64-66.56 25.408C411.872 60.704 384.416 48 354.464 48c-58.112 0-104.896 47.168-104.896 104.992 0 8.32.704 16.32 2.432 23.936-87.264-4.256-164.48-46.08-216.352-109.792-9.056 15.712-14.368 33.696-14.368 53.056 0 36.352 18.72 68.576 46.624 87.232-16.864-.32-33.408-5.216-47.424-12.928v1.152c0 51.008 36.384 93.376 84.096 103.136-8.544 2.336-17.856 3.456-27.52 3.456-6.72 0-13.504-.384-19.872-1.792 13.6 41.568 52.192 72.128 98.08 73.12-35.712 27.936-81.056 44.768-130.144 44.768-8.608 0-16.864-.384-25.12-1.44C46.496 446.88 101.6 464 161.024 464c193.152 0 298.752-160 298.752-298.688 0-4.64-.16-9.12-.384-13.568 20.832-14.784 38.336-33.248 52.608-54.496z"/></symbol><symbol viewBox="0 0 448.941 448.941" id="usd-logo" xmlns="http://www.w3.org/2000/svg"><path d="M336.706 112.235V56.118H252.53V0h-56.118v56.118h-28.059c-30.95 0-56.118 25.168-56.118 56.118v84.176c0 30.95 25.168 56.118 56.118 56.118h112.235v84.176H112.235v56.118h84.176v56.118h56.118v-56.118h28.059c30.95 0 56.118-25.168 56.118-56.118V252.53c0-30.95-25.168-56.118-56.118-56.118H168.353v-84.176h168.353z"/></symbol><symbol viewBox="0 0 512 512" id="usdt" xmlns="http://www.w3.org/2000/svg"><path d="M512 256c0 125.356-90.102 229.669-209.084 251.705A256.92 256.92 0 0 1 256 512c-17.617 0-34.816-1.776-51.43-5.172C87.834 483.025 0 379.768 0 256c0-68.242 26.708-130.267 70.248-176.149a248.85 248.85 0 0 1 7.732-7.816C124.05 27.439 186.817 0 256 0s131.95 27.439 178.019 72.035a235.918 235.918 0 0 1 3.229 3.176C483.443 121.511 512 185.428 512 256z"/><path d="M302.916 217.83v-57.051h134.332V72.035h-367v88.743H204.57v57.271c-108.502 5.548-189.785 28.285-189.785 55.495 0 27.209 81.283 49.946 189.785 55.495v177.789C221.184 510.224 238.383 512 256 512c16.029 0 31.713-1.473 46.916-4.294V329.258c110.759-5.141 194.299-28.129 194.299-55.714s-83.54-50.573-194.299-55.714zM256 308.611c-121.031 0-219.146-18.233-219.146-40.73 0-19.205 71.502-35.307 167.717-39.602v65.233a344.718 344.718 0 0 0 49.173 3.532 344.51 344.51 0 0 0 49.173-3.532V228.08c98.482 4.002 172.22 20.292 172.22 39.8-.001 22.497-98.117 40.731-219.137 40.731z" fill="#f0efeb"/></symbol><symbol viewBox="0 0 512 512" id="usdt-logo" xmlns="http://www.w3.org/2000/svg"><path d="M302.916 217.83v-57.051h134.332V72.035h-367v88.743H204.57v57.271c-108.502 5.548-189.785 28.285-189.785 55.495 0 27.209 81.283 49.946 189.785 55.495v177.789C221.184 510.224 238.383 512 256 512c16.029 0 31.713-1.473 46.916-4.294V329.258c110.759-5.141 194.299-28.129 194.299-55.714s-83.54-50.573-194.299-55.714zM256 308.611c-121.031 0-219.146-18.233-219.146-40.73 0-19.205 71.502-35.307 167.717-39.602v65.233a344.718 344.718 0 0 0 49.173 3.532 344.51 344.51 0 0 0 49.173-3.532V228.08c98.482 4.002 172.22 20.292 172.22 39.8-.001 22.497-98.117 40.731-219.137 40.731z"/></symbol><symbol viewBox="0 0 512 512" id="user" xmlns="http://www.w3.org/2000/svg"><path d="M471.387 325.012c-16.969-14.91-37.547-27.793-61.168-38.29-10.098-4.484-21.914.063-26.399 10.157-4.484 10.094.063 21.91 10.157 26.398 19.918 8.852 37.082 19.543 51.007 31.782C462.152 370.145 472 391.989 472 415v37c0 11.027-8.973 20-20 20H60c-11.027 0-20-8.973-20-20v-37c0-23.012 9.848-44.855 27.016-59.941C87.223 337.3 146.098 296 256 296c81.605 0 148-66.395 148-148S337.605 0 256 0 108 66.395 108 148c0 47.707 22.695 90.207 57.852 117.29-64.329 14.14-104.344 41.358-125.239 59.722C14.805 347.687 0 380.484 0 415v37c0 33.086 26.914 60 60 60h392c33.086 0 60-26.914 60-60v-37c0-34.516-14.805-67.313-40.613-89.988zM148 148c0-59.55 48.45-108 108-108s108 48.45 108 108-48.45 108-108 108-108-48.45-108-108zm0 0"/></symbol><symbol viewBox="0 0 548.358 548.358" id="vk" xmlns="http://www.w3.org/2000/svg"><path d="M545.451 400.298c-.664-1.431-1.283-2.618-1.858-3.569-9.514-17.135-27.695-38.167-54.532-63.102l-.567-.571-.284-.28-.287-.287h-.288c-12.18-11.611-19.893-19.418-23.123-23.415-5.91-7.614-7.234-15.321-4.004-23.13 2.282-5.9 10.854-18.36 25.696-37.397 7.807-10.089 13.99-18.175 18.556-24.267 32.931-43.78 47.208-71.756 42.828-83.939l-1.701-2.847c-1.143-1.714-4.093-3.282-8.846-4.712-4.764-1.427-10.853-1.663-18.278-.712l-82.224.568c-1.332-.472-3.234-.428-5.712.144l-3.713.859-1.431.715-1.136.859c-.952.568-1.999 1.567-3.142 2.995-1.137 1.423-2.088 3.093-2.848 4.996-8.952 23.031-19.13 44.444-30.553 64.238-7.043 11.803-13.511 22.032-19.418 30.693-5.899 8.658-10.848 15.037-14.842 19.126-4 4.093-7.61 7.372-10.852 9.849-3.237 2.478-5.708 3.525-7.419 3.142-1.715-.383-3.33-.763-4.859-1.143-2.663-1.714-4.805-4.045-6.42-6.995-1.622-2.95-2.714-6.663-3.285-11.136-.568-4.476-.904-8.326-1-11.563-.089-3.233-.048-7.806.145-13.706.198-5.903.287-9.897.287-11.991 0-7.234.141-15.085.424-23.555.288-8.47.521-15.181.716-20.125.194-4.949.284-10.185.284-15.705s-.336-9.849-1-12.991a44.442 44.442 0 0 0-2.99-9.137c-1.335-2.95-3.289-5.232-5.853-6.852-2.569-1.618-5.763-2.902-9.564-3.856-10.089-2.283-22.936-3.518-38.547-3.71-35.401-.38-58.148 1.906-68.236 6.855-3.997 2.091-7.614 4.948-10.848 8.562-3.427 4.189-3.905 6.475-1.431 6.851 11.422 1.711 19.508 5.804 24.267 12.275l1.715 3.429c1.334 2.474 2.666 6.854 3.999 13.134 1.331 6.28 2.19 13.227 2.568 20.837.95 13.897.95 25.793 0 35.689-.953 9.9-1.853 17.607-2.712 23.127-.859 5.52-2.143 9.993-3.855 13.418-1.715 3.426-2.856 5.52-3.428 6.28-.571.76-1.047 1.239-1.425 1.427a21.387 21.387 0 0 1-7.71 1.431c-2.667 0-5.901-1.334-9.707-4-3.805-2.666-7.754-6.328-11.847-10.992-4.093-4.665-8.709-11.184-13.85-19.558-5.137-8.374-10.467-18.271-15.987-29.691l-4.567-8.282c-2.855-5.328-6.755-13.086-11.704-23.267-4.952-10.185-9.329-20.037-13.134-29.554-1.521-3.997-3.806-7.04-6.851-9.134l-1.429-.859c-.95-.76-2.475-1.567-4.567-2.427a30.301 30.301 0 0 0-6.567-1.854l-78.229.568c-7.994 0-13.418 1.811-16.274 5.428l-1.143 1.711c-.571.953-.859 2.475-.859 4.57 0 2.094.571 4.664 1.714 7.707 11.42 26.84 23.839 52.725 37.257 77.659 13.418 24.934 25.078 45.019 34.973 60.237 9.897 15.229 19.985 29.602 30.264 43.112 10.279 13.515 17.083 22.176 20.412 25.981 3.333 3.812 5.951 6.662 7.854 8.565l7.139 6.851c4.568 4.569 11.276 10.041 20.127 16.416 8.853 6.379 18.654 12.659 29.408 18.85 10.756 6.181 23.269 11.225 37.546 15.126 14.275 3.905 28.169 5.472 41.684 4.716h32.834c6.659-.575 11.704-2.669 15.133-6.283l1.136-1.431c.764-1.136 1.479-2.901 2.139-5.276.668-2.379 1-5 1-7.851-.195-8.183.428-15.558 1.852-22.124 1.423-6.564 3.045-11.513 4.859-14.846 1.813-3.33 3.859-6.14 6.136-8.418 2.282-2.283 3.908-3.666 4.862-4.142.948-.479 1.705-.804 2.276-.999 4.568-1.522 9.944-.048 16.136 4.429 6.187 4.473 11.99 9.996 17.418 16.56 5.425 6.57 11.943 13.941 19.555 22.124 7.617 8.186 14.277 14.271 19.985 18.274l5.708 3.426c3.812 2.286 8.761 4.38 14.853 6.283 6.081 1.902 11.409 2.378 15.984 1.427l73.087-1.14c7.229 0 12.854-1.197 16.844-3.572 3.998-2.379 6.373-5 7.139-7.851.764-2.854.805-6.092.145-9.712-.677-3.611-1.344-6.136-2.008-7.563z"/></symbol><symbol viewBox="0 0 90.677 90.677" id="yt" xmlns="http://www.w3.org/2000/svg"><path d="M82.287 45.907c-.937-4.071-4.267-7.074-8.275-7.521-9.489-1.06-19.098-1.065-28.66-1.06-9.566-.005-19.173 0-28.665 1.06-4.006.448-7.334 3.451-8.27 7.521-1.334 5.797-1.35 12.125-1.35 18.094 0 5.969 0 12.296 1.334 18.093.936 4.07 4.264 7.073 8.272 7.521 9.49 1.061 19.097 1.065 28.662 1.061 9.566.005 19.171 0 28.664-1.061 4.006-.448 7.336-3.451 8.272-7.521 1.333-5.797 1.34-12.124 1.34-18.093-.001-5.97.009-12.297-1.324-18.094zM28.9 50.4h-5.54v29.438h-5.146V50.4h-5.439v-4.822H28.9V50.4zm13.977 29.439h-4.629v-2.785c-1.839 2.108-3.585 3.136-5.286 3.136-1.491 0-2.517-.604-2.98-1.897-.252-.772-.408-1.994-.408-3.796V54.311h4.625v18.795c0 1.084 0 1.647.042 1.799.111.718.462 1.082 1.082 1.082.928 0 1.898-.715 2.924-2.166v-19.51h4.629l.001 25.528zm17.573-7.662c0 2.361-.159 4.062-.468 5.144-.618 1.899-1.855 2.869-3.695 2.869-1.646 0-3.234-.914-4.781-2.824v2.474h-4.625V45.578h4.625v11.189c1.494-1.839 3.08-2.769 4.781-2.769 1.84 0 3.078.969 3.695 2.88.311 1.027.468 2.715.468 5.132v10.167zm17.457-4.259h-9.251v4.525c0 2.363.773 3.543 2.363 3.543 1.139 0 1.802-.619 2.066-1.855.043-.251.104-1.279.104-3.134h4.719v.675c0 1.491-.057 2.518-.099 2.98a6.591 6.591 0 0 1-1.08 2.771c-1.281 1.854-3.179 2.768-5.595 2.768-2.42 0-4.262-.871-5.599-2.614-.981-1.278-1.485-3.29-1.485-6.003v-8.941c0-2.729.447-4.725 1.43-6.015 1.336-1.747 3.177-2.617 5.54-2.617 2.321 0 4.161.87 5.457 2.617.969 1.29 1.432 3.286 1.432 6.015v5.285h-.002z"/><path d="M70.978 58.163c-1.546 0-2.321 1.181-2.321 3.541v2.362h4.625v-2.362c-.001-2.36-.774-3.541-2.304-3.541zm-17.166 0c-.762 0-1.534.36-2.307 1.125v15.559c.772.774 1.545 1.14 2.307 1.14 1.334 0 2.012-1.14 2.012-3.445V61.646c0-2.302-.678-3.483-2.012-3.483zm2.584-23.19c1.705 0 3.479-1.036 5.34-3.168v2.814h4.675V8.82h-4.675v19.718c-1.036 1.464-2.018 2.188-2.953 2.188-.626 0-.994-.37-1.096-1.095-.057-.153-.057-.722-.057-1.817V8.82h-4.66v20.4c0 1.822.156 3.055.414 3.836.47 1.307 1.507 1.917 3.012 1.917zM23.851 20.598v14.021h5.184V20.598L35.271 0h-5.242l-3.537 13.595L22.812 0h-5.455c1.093 3.209 2.23 6.434 3.323 9.646 1.663 4.828 2.701 8.468 3.171 10.952zm18.368 14.375c2.342 0 4.162-.881 5.453-2.641.981-1.291 1.451-3.325 1.451-6.067v-9.034c0-2.758-.469-4.774-1.451-6.077-1.291-1.765-3.11-2.646-5.453-2.646-2.33 0-4.149.881-5.443 2.646-.993 1.303-1.463 3.319-1.463 6.077v9.034c0 2.742.47 4.776 1.463 6.067 1.293 1.76 3.113 2.641 5.443 2.641zm-2.231-18.679c0-2.387.724-3.577 2.231-3.577s2.229 1.189 2.229 3.577v10.852c0 2.387-.722 3.581-2.229 3.581-1.507 0-2.231-1.194-2.231-3.581V16.294z"/></symbol></svg>